<?xml version="1.0" encoding="UTF-8" standalone="no"?>
<!-- Created with Inkscape (http://www.inkscape.org/) -->

<svg
   xmlns:dc="http://purl.org/dc/elements/1.1/"
   xmlns:cc="http://creativecommons.org/ns#"
   xmlns:rdf="http://www.w3.org/1999/02/22-rdf-syntax-ns#"
   xmlns:svg="http://www.w3.org/2000/svg"
   xmlns="http://www.w3.org/2000/svg"
   xmlns:sodipodi="http://sodipodi.sourceforge.net/DTD/sodipodi-0.dtd"
   xmlns:inkscape="http://www.inkscape.org/namespaces/inkscape"
   width="1920px"
   height="1080px"
   viewBox="0 0 1920 1080"
   version="1.1"
   id="SVGRoot"
   sodipodi:docname="blue-mountains.svg"
   inkscape:version="0.92.4 (5da689c313, 2019-01-14)">
  <defs
     id="defs23972">
    <clipPath
       clipPathUnits="userSpaceOnUse"
       id="clipPath7150-0-0">
      <path
         d="M 0,0 H 500 V 500 H 0 Z"
         id="path7148-0-4"
         inkscape:connector-curvature="0" />
    </clipPath>
    <clipPath
       clipPathUnits="userSpaceOnUse"
       id="clipPath7162-4-1">
      <path
         d="M 348.003,231.083 H 541.667 V 121.058 H 348.003 Z"
         id="path7160-3-2"
         inkscape:connector-curvature="0" />
    </clipPath>
    <clipPath
       clipPathUnits="userSpaceOnUse"
       id="clipPath7182-6-8">
      <path
         d="M -1.01996,190.35 H 398.983 v -102 H -1.01996 Z"
         id="path7180-8-7"
         inkscape:connector-curvature="0" />
    </clipPath>
    <clipPath
       clipPathUnits="userSpaceOnUse"
       id="clipPath7198-3-0">
      <path
         d="M -1.01996,177.35 H 13.32 V 165.97 H -1.01996 Z"
         id="path7196-9-5"
         inkscape:connector-curvature="0" />
    </clipPath>
    <clipPath
       clipPathUnits="userSpaceOnUse"
       id="clipPath7214-6-7">
      <path
         d="m 46.65,173.02 h 5.33 v -6.67 h -5.33 z"
         id="path7212-2-3"
         inkscape:connector-curvature="0" />
    </clipPath>
    <clipPath
       clipPathUnits="userSpaceOnUse"
       id="clipPath7230-4-3">
      <path
         d="m 71.34,170.34 h 11.43 v -6.16 H 71.34 Z"
         id="path7228-1-3"
         inkscape:connector-curvature="0" />
    </clipPath>
    <clipPath
       clipPathUnits="userSpaceOnUse"
       id="clipPath7246-4-3">
      <path
         d="m 95.6,170.25 h 9.38 v -6.56 H 95.6 Z"
         id="path7244-6-5"
         inkscape:connector-curvature="0" />
    </clipPath>
    <clipPath
       clipPathUnits="userSpaceOnUse"
       id="clipPath7262-6-3">
      <path
         d="m 124.98,176.68 h 14.34 v -4.465 h -14.34 z"
         id="path7260-4-2"
         inkscape:connector-curvature="0" />
    </clipPath>
    <clipPath
       clipPathUnits="userSpaceOnUse"
       id="clipPath7278-7-3">
      <path
         d="m 151.65,186.02 h 8.33 v -5.295 h -8.33 z"
         id="path7276-4-9"
         inkscape:connector-curvature="0" />
    </clipPath>
    <clipPath
       clipPathUnits="userSpaceOnUse"
       id="clipPath7294-5-0">
      <path
         d="m 186.32,190.35 h 12.83 V 176.6 h -12.83 z"
         id="path7292-3-6"
         inkscape:connector-curvature="0" />
    </clipPath>
    <clipPath
       clipPathUnits="userSpaceOnUse"
       id="clipPath7310-7-2">
      <path
         d="m 228.98,178.35 h 14.34 v -7.5 h -14.34 z"
         id="path7308-0-2"
         inkscape:connector-curvature="0" />
    </clipPath>
    <clipPath
       clipPathUnits="userSpaceOnUse"
       id="clipPath7326-5-2">
      <path
         d="M 273.65,174.68 H 392.6 V 120.85 H 273.65 Z"
         id="path7324-4-9"
         inkscape:connector-curvature="0" />
    </clipPath>
    <clipPath
       clipPathUnits="userSpaceOnUse"
       id="clipPath7374-3-0">
      <path
         d="m 305.272,208.689 h 11 v -11.506 h -11 z"
         id="path7372-6-6"
         inkscape:connector-curvature="0" />
    </clipPath>
  </defs>
  <sodipodi:namedview
     id="base"
     pagecolor="#ffffff"
     bordercolor="#666666"
     borderopacity="1.0"
     inkscape:pageopacity="0.0"
     inkscape:pageshadow="2"
     inkscape:zoom="0.35"
     inkscape:cx="327.3793"
     inkscape:cy="562.75847"
     inkscape:document-units="px"
     inkscape:current-layer="layer1"
     showgrid="false"
     inkscape:window-width="1920"
     inkscape:window-height="1001"
     inkscape:window-x="-9"
     inkscape:window-y="-9"
     inkscape:window-maximized="1"
     inkscape:object-nodes="false"
     inkscape:snap-nodes="false"
     inkscape:snap-global="false" />
  <metadata
     id="metadata23975">
    <rdf:RDF>
      <cc:Work
         rdf:about="">
        <dc:format>image/svg+xml</dc:format>
        <dc:type
           rdf:resource="http://purl.org/dc/dcmitype/StillImage" />
      </cc:Work>
    </rdf:RDF>
  </metadata>
  <g
     inkscape:label="Layer 1"
     inkscape:groupmode="layer"
     id="layer1">
    <g
       transform="matrix(3.8921558,0,0,-2.3499877,-20.181807,1088.6642)"
       id="g7146"
       clip-path="url(#clipPath7150-0-0)">
      <g
         id="g7152"
         transform="translate(513.0029,85.0198)">
        <path
           d="m 0,0 c -9,-4 -100.5,-25 -100.5,-25 l -114,1.5 c 0,0 -129,35.5 -164,44 -35,8.5 -16.5,24.5 -16.5,24.5 0,0 40,10 64.5,17.5 24.5,7.5 61,25 79,30.5 6.544,1.999 32.019,22.669 43.769,30.669 5.25,-4.75 8.418,-6.261 11,-9 8.25,7.25 11.304,10.543 15.25,14.5 10.248,10.276 15.945,16.652 16.481,16.831 1.5,0.5 6.5,-2 14.5,-6 8,-4 17.5,-0.5 25.5,-1 8,-0.5 143.5,-79.5 147.5,-81.5 0,0 1.21,-3.74 2.82,-9.069 C 28.36,38.431 32.851,22.851 33.5,16 34.5,5.5 9,4 0,0"
           style="fill:#29a2cc;fill-opacity:1;fill-rule:nonzero;stroke:none"
           id="path7154"
           inkscape:connector-curvature="0" />
      </g>
      <g
         id="g7156">
        <g
           id="g7158" />
        <g
           id="g7170">
          <g
             clip-path="url(#clipPath7162-4-1)"
             id="g7168"
             style="opacity:0.5">
            <g
               transform="translate(538.3232,133.4505)"
               id="g7166">
              <path
                 d="M 0,0 3.344,-12.393 -145.09,82.399 c 0,0 -16.233,0.541 -26.9,1.208 -6,4.667 -18.33,13.962 -18.33,13.962 1.5,0.5 6.5,-2 14.5,-6 8,-4 17.5,-0.5 25.5,-1 8,-0.5 143.5,-79.5 147.5,-81.5 0,0 1.21,-3.74 2.82,-9.069"
                 style="fill:#0ca5bb;fill-opacity:1;fill-rule:nonzero;stroke:none"
                 id="path7164"
                 inkscape:connector-curvature="0" />
            </g>
          </g>
        </g>
      </g>
      <g
         id="g7172"
         transform="translate(398.9805,122.0198)">
        <path
           d="m 0,0 c 0.34,-1.67 -27.33,-33.67 -27.33,-33.67 0,0 -84.67,41 -104,36.67 -19.331,-4.34 -58.331,-24.67 -58.331,-24.67 l -59.67,-11.67 c 0,0 -30.33,-1 -60,9 C -339,-14.34 -369,-4.67 -369,-4.67 L -399.661,-16 -400,55.33 -385.661,48 l 12.33,3 h 21 l 5.331,-5.67 10.339,3.67 9,-0.67 0.02,-0.01 c 0.471,-0.179 8.051,-3.04 10.31,-4.66 0.38,-0.269 0.741,-0.309 1.121,-0.19 l 0.009,0.01 c 1.941,0.63 4.071,5.57 8.54,5.85 1.39,0.09 2.841,-0.37 4.27,-1.09 l 0.011,-0.01 c 4.06,-2.049 7.9,-6.23 9.38,-6.23 2,0 7.669,1 8.669,2 1,1 11.331,10.66 11.331,10.66 l 14.339,-1.33 5,5.67 7.33,5 8.331,-4 18,4.33 8.339,4 c 0,0 10,-7 10.33,-8 C -202,59.33 -201,56 -200,55 c 1,-1 17,-1.67 17,-1.67 l 13,3 14.339,-6.33 19.331,0.33 11,2.33 c 0,0 1.04,-0.849 2.609,-2.099 l 0.031,-0.021 c 3.44,-2.769 9.389,-7.479 12.36,-9.54 3.689,-2.56 81,-29.33 103.949,-38.21 C -2.4,1.25 -0.051,0.25 0,0"
           style="fill:#1379bb;fill-opacity:1;fill-rule:nonzero;stroke:none"
           id="path7174"
           inkscape:connector-curvature="0" />
      </g>
      <g
         id="g7176">
        <g
           id="g7178" />
        <g
           id="g7190">
          <g
             clip-path="url(#clipPath7182-6-8)"
             id="g7188"
             style="opacity:0.19999701">
            <g
               transform="translate(398.9805,122.0198)"
               id="g7186">
              <path
                 d="m 0,0 c 0.34,-1.67 -27.33,-33.67 -27.33,-33.67 0,0 -84.67,41 -104,36.67 -19.331,-4.34 -58.331,-24.67 -58.331,-24.67 l -59.67,-11.67 c 0,0 -30.33,-1 -60,9 C -339,-14.34 -369,-4.67 -369,-4.67 L -399.661,-16 -400,55.33 -385.661,48 l 12.33,3 h 21 l 5.331,-5.67 10.339,3.67 9,-0.67 0.02,-0.01 c 0.471,-0.179 8.051,-3.04 10.31,-4.66 0.38,-0.269 0.741,-0.309 1.121,-0.19 l 0.009,0.01 c 1.941,0.63 4.071,5.57 8.54,5.85 1.39,0.09 2.841,-0.37 4.27,-1.09 l 0.011,-0.01 c 4.06,-2.049 7.9,-6.23 9.38,-6.23 2,0 7.669,1 8.669,2 1,1 11.331,10.66 11.331,10.66 l 14.339,-1.33 5,5.67 7.33,5 8.331,-4 18,4.33 8.339,4 c 0,0 10,-7 10.33,-8 C -202,59.33 -201,56 -200,55 c 1,-1 17,-1.67 17,-1.67 l 13,3 14.339,-6.33 19.331,0.33 11,2.33 c 0,0 1.04,-0.849 2.609,-2.099 l 0.031,-0.021 c 3.44,-2.769 9.389,-7.479 12.36,-9.54 3.689,-2.56 81,-29.33 103.949,-38.21 C -2.4,1.25 -0.051,0.25 0,0"
                 style="fill:#29a2cc;fill-opacity:1;fill-rule:nonzero;stroke:none"
                 id="path7184"
                 inkscape:connector-curvature="0" />
            </g>
          </g>
        </g>
      </g>
      <g
         id="g7192">
        <g
           id="g7194" />
        <g
           id="g7206">
          <g
             clip-path="url(#clipPath7198-3-0)"
             id="g7204">
            <g
               transform="translate(13.3198,170.0198)"
               id="g7202">
              <path
                 d="M 0,0 -5.73,-4.05 -14.34,7.33 Z"
                 style="fill:#1379bb;fill-opacity:1;fill-rule:nonzero;stroke:none"
                 id="path7200"
                 inkscape:connector-curvature="0" />
            </g>
          </g>
        </g>
      </g>
      <g
         id="g7208">
        <g
           id="g7210" />
        <g
           id="g7222">
          <g
             clip-path="url(#clipPath7214-6-7)"
             id="g7220">
            <g
               transform="translate(51.98,167.3499)"
               id="g7218">
              <path
                 d="M 0,0 -2.663,-1 -5.33,5.67 Z"
                 style="fill:#1379bb;fill-opacity:1;fill-rule:nonzero;stroke:none"
                 id="path7216"
                 inkscape:connector-curvature="0" />
            </g>
          </g>
        </g>
      </g>
      <g
         id="g7224">
        <g
           id="g7226" />
        <g
           id="g7238">
          <g
             clip-path="url(#clipPath7230-4-3)"
             id="g7236">
            <g
               transform="translate(82.77,165.4895)"
               id="g7234">
              <path
                 d="m 0,0 -1.95,-1.31 -2.34,1.75 -7.14,4.411 C -10.96,4.671 -3.38,1.811 -1.12,0.19 -0.74,-0.079 -0.38,-0.119 0,0"
                 style="fill:#1379bb;fill-opacity:1;fill-rule:nonzero;stroke:none"
                 id="path7232"
                 inkscape:connector-curvature="0" />
            </g>
          </g>
        </g>
      </g>
      <g
         id="g7240">
        <g
           id="g7242" />
        <g
           id="g7254">
          <g
             clip-path="url(#clipPath7246-4-3)"
             id="g7252">
            <g
               transform="translate(104.98,164.0198)"
               id="g7250">
              <path
                 d="M 0,0 -2.8,-0.33 -9.38,6.23 C -5.32,4.181 -1.48,0 0,0"
                 style="fill:#1379bb;fill-opacity:1;fill-rule:nonzero;stroke:none"
                 id="path7248"
                 inkscape:connector-curvature="0" />
            </g>
          </g>
        </g>
      </g>
      <g
         id="g7256">
        <g
           id="g7258" />
        <g
           id="g7270">
          <g
             clip-path="url(#clipPath7262-6-3)"
             id="g7268">
            <g
               transform="translate(124.98,176.68)"
               id="g7266">
              <path
                 d="m 0,0 c 0,0 12.045,-4.705 12.42,-4.455 0.375,0.25 1.92,3.125 1.92,3.125 z"
                 style="fill:#1379bb;fill-opacity:1;fill-rule:nonzero;stroke:none"
                 id="path7264"
                 inkscape:connector-curvature="0" />
            </g>
          </g>
        </g>
      </g>
      <g
         id="g7272">
        <g
           id="g7274" />
        <g
           id="g7286">
          <g
             clip-path="url(#clipPath7278-7-3)"
             id="g7284">
            <g
               transform="translate(151.6499,186.0198)"
               id="g7282">
              <path
                 d="M 0,0 5.875,-5.295 8.33,-4 Z"
                 style="fill:#1379bb;fill-opacity:1;fill-rule:nonzero;stroke:none"
                 id="path7280"
                 inkscape:connector-curvature="0" />
            </g>
          </g>
        </g>
      </g>
      <g
         id="g7288">
        <g
           id="g7290" />
        <g
           id="g7302">
          <g
             clip-path="url(#clipPath7294-5-0)"
             id="g7300">
            <g
               transform="translate(186.3198,190.3499)"
               id="g7298">
              <path
                 d="m 0,0 7.205,-7.875 2.375,-5.5 3.25,-0.375 -2.75,6.25 z"
                 style="fill:#1379bb;fill-opacity:1;fill-rule:nonzero;stroke:none"
                 id="path7296"
                 inkscape:connector-curvature="0" />
            </g>
          </g>
        </g>
      </g>
      <g
         id="g7304">
        <g
           id="g7306" />
        <g
           id="g7318">
          <g
             clip-path="url(#clipPath7310-7-2)"
             id="g7316">
            <g
               transform="translate(228.98,178.3499)"
               id="g7314">
              <path
                 d="m 0,0 12.67,-7.5 1.67,1.17 z"
                 style="fill:#1379bb;fill-opacity:1;fill-rule:nonzero;stroke:none"
                 id="path7312"
                 inkscape:connector-curvature="0" />
            </g>
          </g>
        </g>
      </g>
      <g
         id="g7320">
        <g
           id="g7322" />
        <g
           id="g7334">
          <g
             clip-path="url(#clipPath7326-5-2)"
             id="g7332"
             style="opacity:0.69999701">
            <g
               transform="translate(392.5996,124.8099)"
               id="g7330">
              <path
                 d="m 0,0 -4.069,-3.96 -101.63,40 -13.25,13.83 2.609,-2.099 0.03,-0.021 c 3.441,-2.77 9.39,-7.479 12.361,-9.54 C -100.26,35.65 -22.949,8.88 0,0"
                 style="fill:#1379bb;fill-opacity:1;fill-rule:nonzero;stroke:none"
                 id="path7328"
                 inkscape:connector-curvature="0" />
            </g>
          </g>
        </g>
      </g>
      <g
         id="g7336"
         transform="translate(-7.3501,136.7542)">
        <path
           d="m 0,0 c 0,0 54,8.844 59.667,9.728 5.666,0.884 16.666,3.537 18,3.832 1.333,0.294 5,0.294 6.666,-0.295 1.667,-0.589 14,7.075 14,7.075 0,0 12.667,-2.948 18.334,-3.537 5.666,-0.59 19.333,2.358 19.333,2.358 0,0 4.667,3.537 9.333,1.179 4.667,-2.359 12,-6.78 12,-6.78 0,0 17.334,-0.295 18.667,0.589 1.333,0.885 16,3.832 16,3.832 l 8.333,-0.883 19.667,-9.434 36,-18.571 38.333,-10.318 32.667,-9.727 2.667,-14.444 -110,-42.154 -118,18.277 L 16,-41.27 -9.667,-26.825 Z"
           style="fill:#166fb7;fill-opacity:1;fill-rule:nonzero;stroke:none"
           id="path7338"
           inkscape:connector-curvature="0" />
      </g>
      <g
         id="g7340"
         transform="translate(174.1499,102.5599)">
        <path
           d="M 0,0 19.667,12.381 25,11.201 48,24.172 51.333,20.635 69,36.553 75,33.016 c 0,0 14,8.254 15,8.254 1,0 12.333,-2.065 12.333,-2.065 l 6.334,3.243 5,6.191 7.666,-5.601 c 0,0 22,-10.612 23,-10.612 1,0 11,-7.664 11,-7.664 l 3.334,-2.949 11.333,-1.178 4,1.178 11,-4.126 c 0,0 12.667,-7.075 23.667,-11.202 11,-4.127 24.333,-11.202 25.333,-13.56 1,-2.359 16.333,-13.265 2.333,-18.277 -14,-5.01 -50.666,-14.739 -81.333,-12.969 -30.667,1.768 -84.667,5.01 -84.667,5.01 0,0 -30.333,5.012 -44,4.717 -13.666,-0.295 -27.666,1.769 -27.666,1.769 l -26,5.6 17,17.393 z"
           style="fill:#1863b5;fill-opacity:1;fill-rule:nonzero;stroke:none"
           id="path7342"
           inkscape:connector-curvature="0" />
      </g>
      <g
         id="g7344"
         transform="translate(375.1504,109.9925)">
        <path
           d="m 0,0 c 1.5,0.34 37,31.959 37,31.959 l 13.5,2.04 8,8.499 c 0,0 18,4.42 20,5.101 2,0.679 18,12.239 18,12.239 l 15,-0.68 13.5,10.199 V 3.739 L 77,-11.56 15.5,-6.12 Z"
           style="fill:#282899;fill-opacity:1;fill-rule:nonzero;stroke:none"
           id="path7346"
           inkscape:connector-curvature="0" />
      </g>
      <g
         id="g7348"
         transform="translate(375.1504,109.9925)">
        <path
           d="m 0,0 c 1.5,0.34 37,31.959 37,31.959 l 13.5,2.04 8,8.499 c 0,0 18,4.42 20,5.101 2,0.679 18,12.239 18,12.239 l 15,-0.68 13.5,10.199 V 3.739 L 77,-11.56 15.5,-6.12 Z"
           style="fill:#166fb7;fill-opacity:1;fill-rule:nonzero;stroke:none"
           id="path7350"
           inkscape:connector-curvature="0" />
      </g>
      <g
         id="g7352"
         transform="translate(229.6499,67.9231)">
        <path
           d="M 0,0 -72.5,38.469 -136,50.407 c 0,0 -15.5,0.443 -22,-3.537 -6.5,-3.979 -11.5,-5.748 -14,-3.979 -2.5,1.768 -13,13.707 -13,13.707 0,0 -10.5,6.19 -12.5,6.19 h -23 c -1.5,0 -12,-0.442 -12,-0.442 0,0 -8.5,-19.014 -9.5,-22.993 -1,-3.98 4.5,-29.183 4.5,-29.183 0,0 53,-7.959 84.5,-6.633 31.5,1.326 54.5,4.422 54.5,4.422 z"
           style="fill:#1957b2;fill-opacity:1;fill-rule:nonzero;stroke:none"
           id="path7354"
           inkscape:connector-curvature="0" />
      </g>
      <g
         id="g7356"
         transform="translate(267.6504,95.0169)">
        <path
           d="m 0,0 c 3.271,0.578 43.632,21.506 43.632,21.506 l 9.485,-5.495 7.523,5.785 c 0,0 3.27,3.76 4.906,3.76 1.636,0 2.943,-4.917 3.925,-4.917 0.981,0 13.084,10.702 13.084,10.702 l 6.868,-3.471 4.252,1.446 3.271,-3.181 6.541,5.784 6.869,-8.099 9.159,11.282 4.252,-8.1 8.831,2.025 7.85,-6.075 7.523,14.174 9.485,-5.207 13.084,8.389 c 0,0 10.14,-4.339 11.12,-4.339 0.982,0 9.486,1.446 9.486,1.446 l 3.925,-8.967 5.561,5.207 6.541,-13.595 14.391,9.545 16.682,-1.446 V -75.394 H -99.631 l 63.781,65.661 20.28,13.594 z"
           style="fill:#0a459b;fill-opacity:1;fill-rule:nonzero;stroke:none"
           id="path7358"
           inkscape:connector-curvature="0" />
      </g>
      <g
         id="g7360"
         transform="translate(248.2573,58.1536)">
        <path
           d="m 0,0 c -3.271,0.361 -54.623,16.793 -54.623,16.793 l -9.485,-3.431 -7.523,3.612 c 0,0 -3.271,2.346 -4.907,2.346 -1.635,0 -2.943,-3.069 -3.925,-3.069 -0.981,0 -13.083,6.681 -13.083,6.681 l -6.869,-2.166 -4.252,0.902 -3.271,-1.986 -6.541,3.611 -6.869,-5.056 -9.158,7.042 -4.253,-5.055 -8.831,1.263 -7.85,-3.792 -7.523,8.848 -9.485,-3.25 -13.084,5.236 c 0,0 -10.139,-2.708 -11.12,-2.708 -0.982,0 -9.486,0.903 -9.486,0.903 l -3.924,-5.598 -5.561,3.251 -6.542,-8.487 -14.392,5.959 -16.681,-0.904 V -43.697 H 88.639 L 24.858,-2.708 4.579,5.778 Z"
           style="fill:#044089;fill-opacity:1;fill-rule:nonzero;stroke:none"
           id="path7362"
           inkscape:connector-curvature="0" />
      </g>
      <g
         id="g7364"
         transform="translate(477.5098,68.43)">
        <path
           d="m 0,0 c -0.279,-0.02 -0.55,-0.04 -0.83,-0.07 v 0.01 l 2.801,3.93 z m -3.279,0.65 -0.511,1 0.57,-0.81 z m -12.811,4.22 -0.4,0.99 1.65,2.61 z m 0.361,-4.96 -0.121,0.33 1.01,1.41 z m -1.041,3 -1.41,4.04 1.81,-2.87 z M -36.319,1.43 c -0.101,0.27 -0.351,0.81 -0.671,1.5 0.03,0.01 0.07,0.03 0.091,0.07 l 2.489,3.95 z m -0.391,-9.01 -0.33,0.82 2.63,3.69 z m -2.729,12.99 c 0,0 2.519,-3.57 3.069,-4.11 l -0.94,-2.69 z m 1.269,-9.3 -0.43,1.07 0.59,-0.59 z m -11.29,-15.62 -0.189,0.62 1.809,2.54 z m -0.99,-1.95 -0.369,0.93 0.179,0.25 0.52,-0.53 z m 0.801,6.72 -0.691,-1.97 -1.599,5.12 c 0,0 1.349,-1.91 2.29,-3.15 m -11.191,-13.23 -0.16,0.39 0.66,1.05 z m 0.34,-5.69 -0.02,0.06 0.18,0.25 z m -1.16,3.34 -0.27,0.79 0.35,-0.56 z m -22.46,-13.2 h -0.09 l 0.3,0.41 z m -4.13,1.5 -1.04,2.99 1.34,-2.13 z m -13.8,-1.92 -1.79,5.16 1.68,-2.67 -0.069,-0.17 c -0.05,-0.12 0.12,-0.21 0.189,-0.1 l 0.03,0.04 0.27,-0.43 c 0.091,-0.14 0.301,-0.03 0.24,0.12 l -0.27,0.69 1.43,2.27 z m -16.479,2.29 -0.391,0.68 1.391,2.19 z m -2.561,4.51 2.46,-1.72 -0.61,-1.54 z m -13.71,-9.07 -0.32,0.91 1.721,1.9 z m -20.599,9.74 -0.161,0.39 0.65,1.03 z m -0.821,-2.36 -0.38,1.09 0.59,0.93 0.321,-0.5 z m -0.36,-9.52 -0.279,0.54 0.229,0.331 0.29,-0.401 z m -1.46,14.76 1.5,-2.389 -0.359,-0.911 z m -21.81,-16.85 -0.33,0.94 2.861,4.01 z m 0.531,-9.36 -0.12,0.24 h 1.309 c -0.399,-0.08 -0.79,-0.16 -1.189,-0.24 m -2.191,14.15 -2.24,6.421 2.88,-4.561 z m -0.46,-8.95 -0.09,0.16 h 0.17 z m -1.58,3.09 -0.2,0.38 0.221,-0.31 z m -21.559,6.29 -0.71,1.57 1.399,2.21 c 0.04,-0.03 0.08,-0.05 0.101,-0.06 0.04,-0.01 0.009,0.06 -0.04,0.16 l 1.33,2.111 z m 1.799,-6.47 h -0.12 l 0.401,0.56 z m -2.68,3.93 -1.409,2.48 1.819,-1.28 z m 0.83,6.94 -0.9,-2.28 -2.46,5.49 c 0,0 2.121,-2.1 3.36,-3.21 m -13.86,-7.49 -0.74,1.31 2.45,1.72 z m -0.65,-1.14 -1.09,2.2 1.43,-1.59 z m -16.4,6.93 c -0.01,-0.01 -0.01,-0.02 -0.01,-0.03 l -2.4,6.02 2.66,-2.66 c 0.25,-0.24 0.66,0 0.56,0.34 l -0.58,1.85 c 1,0.82 3.89,3.67 3.89,3.67 z m 0.86,-2.24 -0.82,2.06 c 0.1,-0.1 0.32,-0.15 0.47,-0.04 l 2.49,1.74 z m -14.26,20.38 -0.68,1.73 c 0.05,0 0.1,0.02 0.14,0.06 0.94,0.93 2.52,2.34 2.67,2.46 -0.12,-0.23 -1.07,-2.12 -2.13,-4.25 m 0.15,-4.95 -0.6,1.73 c 0.28,0.4 0.56,0.78 0.82,1.14 l 0.19,-0.3 c 0.12,-0.19 0.4,-0.04 0.32,0.16 l -0.21,0.55 c 0.53,0.74 0.91,1.27 0.91,1.27 z m -0.36,-8.649 -0.29,0.579 0.42,0.421 0.18,-0.241 z m -2.12,15.799 1.92,-3.04 c -0.17,-0.34 -0.34,-0.69 -0.51,-1.03 z m 0.66,-12.93 -0.66,1.3 0.74,-1.05 z m -23.68,-6.86 -0.54,1.56 4.71,6.6 z m -1.35,3.9 -1.05,3.02 1.35,-2.15 z m -21.16,-8.14 -1.4,2.81 1.72,-1.9 z m -15.56,5.81 -0.61,1.54 2.46,1.72 z m -0.71,-1.25 -1,2.87 1.39,-2.19 z m -16.48,-2.29 -1.71,4.91 1.43,-2.27 -0.27,-0.69 c -0.06,-0.15 0.15,-0.26 0.24,-0.12 l 0.27,0.43 0.03,-0.04 c 0.07,-0.11 0.24,-0.02 0.19,0.1 l -0.07,0.17 1.68,2.67 z m -13.14,3.81 c -0.08,0.04 -0.15,0.09 -0.23,0.13 l 0.61,0.97 z m -31.48,17.651 -0.03,0.089 0.09,-0.089 z m -11.67,-1.701 c -0.32,-0.09 -0.64,-0.18 -0.96,-0.28 -0.04,0.09 -0.08,0.18 -0.13,0.27 l 1.8,1.8 z m -2.59,-0.78 c -0.01,0 -0.01,-0.01 -0.02,-0.01 l -0.98,3.13 c 0,0 0.62,-0.87 1.33,-1.86 l -0.34,-1.08 c -0.02,-0.07 0,-0.13 0.01,-0.18 m -68.36,15.05 -0.94,2.71 1.78,-2.82 c -0.28,0.041 -0.56,0.08 -0.84,0.11 m 485.68,5.21 -5.87,16.9 -1.24,3.571 1.24,-1.961 1.72,-2.73 c 0.12,-0.19 0.42,-0.04 0.33,0.17 l -2.05,5.17 -4.389,11.06 3.259,-3.25 c 0.3,-0.3 0.8,0 0.67,0.41 l -5.389,17.18 c 0.299,-0.42 5.029,-7.07 5.5,-7.26 0.489,-0.19 -6.201,12.99 -6.201,12.99 0,0 1.6,-1.79 2.59,-2.99 0.151,-0.19 0.45,-0.03 0.38,0.2 -1.05,3.71 -3.95,14.4 -3.95,14.4 l 3.28,-3.78 c 0.1,-0.12 0.29,0.01 0.22,0.15 l -4.189,8.84 3.139,-2.12 c 0.2,-0.13 0.43,0.09 0.32,0.29 l -3.85,6.67 c 0.17,-0.09 0.57,-0.24 1.42,-0.439 0.27,-0.071 0.49,0.219 0.341,0.459 -3.21,5.45 -4.101,14.86 -4.101,14.86 l -0.03,0.05 c 0,0 -0.73,-9.5 -3.949,-14.95 C 7.42,68.97 7.63,68.7 7.88,68.76 c 0.88,0.21 1.29,0.35 1.471,0.45 L 5.5,62.54 C 5.38,62.34 5.62,62.12 5.811,62.25 L 8.96,64.37 4.76,55.53 C 4.69,55.39 4.88,55.26 4.99,55.38 l 3.281,3.78 c 0,0 -3.481,-10.63 -4.701,-14.38 -0.09,-0.259 0.241,-0.46 0.43,-0.27 1.221,1.21 3.28,3.04 3.28,3.04 0,0 -6.69,-13.18 -6.19,-12.99 0.471,0.19 5.19,6.84 5.49,7.26 L 1.19,24.64 C 1.061,24.23 1.57,23.93 1.87,24.23 l 3.25,3.25 -6.439,-16.23 c -0.08,-0.21 0.21,-0.36 0.329,-0.17 L 1.971,15.771 -2.18,3.83 -3.79,8.47 -2.1,5.78 c 0.071,-0.11 0.241,-0.02 0.19,0.1 l -3.69,9.3 1.871,-1.87 c 0.169,-0.17 0.459,0.01 0.379,0.24 l -3.089,9.86 c 0,0 2.87,-4.06 3.149,-4.18 0.28,-0.11 -3.319,7 -3.54,7.43 0.141,-0.11 1.221,-1.07 1.87,-1.72 0.11,-0.12 0.3,0 0.25,0.15 -0.68,2.08 -2.569,7.86 -2.68,8.22 l 1.87,-2.14 c 0.06,-0.07 0.17,0 0.13,0.08 l -2.41,5.07 1.81,-1.22 c 0.11,-0.079 0.24,0.05 0.18,0.171 l -2.21,3.819 c 0.1,-0.06 0.34,-0.14 0.84,-0.26 0.151,-0.04 0.26,0.12 0.19,0.25 -1.85,3.12 -2.27,8.57 -2.27,8.57 l -0.019,-0.03 c 0,0 -0.5,-5.4 -2.351,-8.52 -0.08,-0.14 0.04,-0.3 0.2,-0.27 0.491,0.12 0.71,0.2 0.821,0.26 l -2.21,-3.819 c -0.071,-0.121 0.069,-0.25 0.179,-0.171 l 1.8,1.22 -2.4,-5.07 c -0.039,-0.08 0.07,-0.15 0.131,-0.08 l 1.869,2.14 c -0.09,-0.36 -1.68,-6.18 -2.26,-8.23 -0.04,-0.13 0.13,-0.22 0.221,-0.12 0.529,0.64 1.34,1.561 1.469,1.7 -0.219,-0.43 -3.81,-7.54 -3.54,-7.43 0.281,0.12 3.161,4.18 3.161,4.18 l -3.101,-9.86 c -0.069,-0.23 0.221,-0.41 0.391,-0.24 l 1.859,1.87 -3.569,-9.01 -4.221,10.63 2.74,-2.73 c 0.25,-0.26 0.68,0 0.57,0.34 l -4.54,14.46 c 0.25,-0.349 4.22,-5.95 4.63,-6.11 0.401,-0.16 -4.94,10.38 -5.2,10.91 0.191,-0.17 1.78,-1.57 2.74,-2.53 0.17,-0.17 0.44,0 0.37,0.23 -1.03,3.151 -3.959,12.09 -3.959,12.09 l 2.759,-3.17 c 0.09,-0.1 0.25,0 0.191,0.13 l -3.531,7.43 2.65,-1.78 c 0.16,-0.11 0.36,0.07 0.261,0.24 l -3.241,5.62 c 0.15,-0.08 0.5,-0.21 1.241,-0.38 0.21,-0.06 0.379,0.17 0.269,0.36 -2.71,4.58 -3.33,12.59 -3.33,12.59 l -0.019,-0.05 c 0,0 -0.75,-7.92 -3.46,-12.51 -0.121,-0.2 0.069,-0.44 0.29,-0.39 0.719,0.18 1.049,0.3 1.199,0.38 l -3.239,-5.62 c -0.101,-0.17 0.099,-0.35 0.259,-0.24 l 2.651,1.78 -3.531,-7.43 c -0.06,-0.13 0.1,-0.23 0.19,-0.13 l 2.761,3.17 c 0,0 -2.441,-8.99 -3.33,-12.11 -0.051,-0.2 0.199,-0.329 0.33,-0.17 0.759,0.93 1.949,2.26 2.149,2.48 -0.31,-0.63 -5.6,-11.06 -5.189,-10.9 0.399,0.16 4.37,5.761 4.62,6.11 L -35.06,14.41 c -0.11,-0.34 0.31,-0.6 0.57,-0.34 l 2.73,2.73 -5.38,-13.56 c -1.02,2.13 -2.589,5.23 -2.69,5.43 0.141,-0.12 1.221,-1.08 1.87,-1.73 0.11,-0.12 0.3,0 0.25,0.15 -0.68,2.08 -2.569,7.86 -2.68,8.22 l 1.87,-2.14 c 0.06,-0.07 0.17,0 0.13,0.08 l -2.41,5.07 1.81,-1.22 c 0.11,-0.079 0.24,0.05 0.18,0.171 l -2.21,3.819 c 0.1,-0.06 0.34,-0.14 0.84,-0.26 0.151,-0.04 0.26,0.12 0.19,0.25 -1.85,3.12 -2.27,8.57 -2.27,8.57 l -0.019,-0.03 c 0,0 -0.5,-5.4 -2.351,-8.52 -0.08,-0.14 0.04,-0.3 0.2,-0.27 0.491,0.12 0.71,0.2 0.821,0.26 l -2.21,-3.819 c -0.071,-0.121 0.069,-0.25 0.179,-0.171 l 1.8,1.22 -2.4,-5.07 c -0.039,-0.08 0.07,-0.15 0.131,-0.08 l 1.869,2.14 c -0.09,-0.36 -1.68,-6.18 -2.26,-8.23 -0.04,-0.13 0.13,-0.22 0.221,-0.12 0.529,0.64 1.34,1.561 1.469,1.7 -0.219,-0.43 -3.81,-7.54 -3.54,-7.43 0.281,0.12 3.161,4.18 3.161,4.18 l -3.101,-9.86 c -0.069,-0.23 0.221,-0.41 0.391,-0.24 l 1.859,1.87 -3.689,-9.3 c -0.05,-0.12 0.12,-0.21 0.189,-0.1 l 1.7,2.69 -1.61,-4.63 c -1,2.12 -2.77,5.61 -2.88,5.83 0.141,-0.12 1.221,-1.08 1.87,-1.73 0.11,-0.12 0.3,0 0.25,0.15 -0.68,2.08 -2.569,7.86 -2.68,8.22 l 1.87,-2.14 c 0.06,-0.07 0.17,0 0.13,0.08 l -2.41,5.07 1.81,-1.22 c 0.11,-0.079 0.24,0.05 0.18,0.171 l -2.21,3.819 c 0.1,-0.06 0.34,-0.14 0.84,-0.26 0.151,-0.04 0.26,0.12 0.19,0.25 -1.85,3.12 -2.27,8.57 -2.27,8.57 l -0.019,-0.03 c 0,0 -0.5,-5.4 -2.351,-8.52 -0.08,-0.14 0.04,-0.3 0.2,-0.27 0.491,0.12 0.71,0.2 0.821,0.26 l -2.21,-3.819 C -58.39,0.15 -58.25,0.021 -58.14,0.1 l 1.8,1.22 -2.4,-5.07 c -0.039,-0.08 0.07,-0.15 0.131,-0.08 l 1.869,2.14 c -0.09,-0.36 -1.68,-6.18 -2.26,-8.23 -0.04,-0.13 0.13,-0.22 0.221,-0.12 0.529,0.64 1.34,1.561 1.469,1.7 -0.219,-0.43 -3.81,-7.54 -3.54,-7.43 0.281,0.12 3.161,4.18 3.161,4.18 l -3.101,-9.86 c -0.069,-0.23 0.221,-0.41 0.391,-0.24 l 1.859,1.87 -2.77,-6.98 -4.21,10.61 3.71,-3.7 c 0.34,-0.35 0.92,0 0.77,0.47 L -67.2,0.19 c 0,0 5.721,-8.08 6.28,-8.3 0.55,-0.22 -6.84,14.36 -7.059,14.8 0.099,-0.12 1.859,-2.07 2.939,-3.4 0.181,-0.21 0.511,-0.04 0.44,0.231 -1.2,4.229 -4.509,16.409 -4.509,16.409 l 3.739,-4.3 c 0.12,-0.14 0.341,0.01 0.261,0.17 l -4.781,10.08 3.58,-2.43 c 0.22,-0.14 0.491,0.11 0.36,0.34 l -4.39,7.61 c 0.2,-0.11 0.651,-0.28 1.62,-0.51 0.31,-0.08 0.56,0.25 0.39,0.53 -3.66,6.21 -4.68,16.94 -4.68,16.94 l -0.019,0.06 c 0,0 -0.841,-10.84 -4.511,-17.04 -0.16,-0.26 0.07,-0.57 0.37,-0.5 1,0.24 1.46,0.4 1.67,0.52 l -4.39,-7.61 c -0.139,-0.23 0.13,-0.48 0.35,-0.34 l 3.59,2.43 -4.779,-10.08 c -0.081,-0.16 0.139,-0.31 0.259,-0.17 l 3.73,4.3 c 0,0 -3.96,-12.11 -5.36,-16.39 -0.089,-0.3 0.281,-0.53 0.5,-0.3 1.33,1.31 3.531,3.27 3.73,3.45 -0.22,-0.44 -7.6,-15.02 -7.05,-14.8 0.561,0.22 6.28,8.3 6.28,8.3 l -6.16,-19.61 c -0.15,-0.47 0.42,-0.82 0.771,-0.47 l 3.71,3.7 -7.351,-18.5 c -0.09,-0.24 0.24,-0.41 0.38,-0.19 l 3.38,5.35 -3.869,-11.14 -3.321,8.35 1.871,-1.87 c 0.169,-0.17 0.459,0.01 0.379,0.24 l -3.089,9.86 c 0,0 2.87,-4.06 3.149,-4.18 0.28,-0.11 -3.319,7 -3.54,7.43 0.141,-0.11 1.221,-1.07 1.87,-1.72 0.11,-0.12 0.3,0 0.25,0.15 -0.68,2.08 -2.569,7.86 -2.68,8.22 l 1.87,-2.14 c 0.06,-0.07 0.17,0 0.13,0.08 l -2.41,5.07 1.81,-1.22 c 0.11,-0.079 0.24,0.05 0.18,0.171 l -2.21,3.819 c 0.1,-0.06 0.34,-0.14 0.84,-0.26 0.151,-0.04 0.26,0.12 0.19,0.25 -1.85,3.12 -2.27,8.57 -2.27,8.57 l -0.019,-0.03 c 0,0 -0.5,-5.4 -2.351,-8.52 -0.08,-0.14 0.04,-0.3 0.2,-0.27 0.491,0.12 0.71,0.2 0.821,0.26 l -2.21,-3.819 c -0.071,-0.121 0.069,-0.25 0.179,-0.171 l 1.8,1.22 -2.4,-5.07 c -0.039,-0.08 0.07,-0.15 0.131,-0.08 l 1.869,2.14 c -0.09,-0.36 -1.68,-6.18 -2.26,-8.23 -0.04,-0.13 0.13,-0.22 0.221,-0.12 0.529,0.64 1.34,1.561 1.469,1.7 -0.219,-0.43 -3.81,-7.54 -3.54,-7.43 0.281,0.12 3.161,4.18 3.161,4.18 l -3.101,-9.86 c -0.069,-0.23 0.221,-0.41 0.391,-0.24 l 1.859,1.87 -3.399,-8.57 -4.13,10.42 2.299,-2.3 c 0.22,-0.22 0.581,0 0.491,0.291 l -3.841,12.219 c 0,0 3.56,-5.03 3.91,-5.17 0.351,-0.14 -4.399,9.22 -4.399,9.22 0,0 1.469,-1.3 2.33,-2.16 0.139,-0.13 0.369,0.01 0.309,0.2 -0.84,2.58 -3.19,9.74 -3.33,10.191 l 2.321,-2.661 c 0.069,-0.089 0.209,0 0.16,0.1 l -2.981,6.28 2.24,-1.51 c 0.13,-0.09 0.3,0.06 0.22,0.21 l -2.74,4.74 c 0.13,-0.07 0.42,-0.18 1.04,-0.32 0.181,-0.05 0.33,0.15 0.23,0.31 -2.29,3.86 -2.81,10.61 -2.81,10.61 l -0.01,-0.03 c 0,0 -0.63,-6.69 -2.92,-10.56 -0.099,-0.169 0.05,-0.37 0.24,-0.33 0.61,0.15 0.89,0.25 1.02,0.32 l -2.739,-4.74 c -0.08,-0.15 0.09,-0.3 0.219,-0.21 l 2.241,1.51 -2.981,-6.28 c -0.05,-0.1 0.08,-0.189 0.16,-0.1 l 2.321,2.661 c -0.12,-0.451 -2.071,-7.661 -2.801,-10.211 -0.05,-0.16 0.16,-0.27 0.27,-0.14 0.701,0.851 1.84,2.12 1.84,2.12 0,0 -4.75,-9.36 -4.4,-9.22 0.35,0.14 3.91,5.17 3.91,5.17 l -3.84,-12.219 c -0.09,-0.291 0.271,-0.511 0.481,-0.291 l 2.309,2.3 -3.03,-7.65 -3.87,8.641 c 0.23,-0.221 3.83,-3.771 4.19,-3.881 0.38,-0.1 -4.73,6.94 -4.73,6.94 0,0 1.58,-0.98 2.5,-1.62 0.15,-0.11 0.4,0 0.341,0.14 -0.941,2.01 -3.591,7.68 -3.591,7.68 l 2.5,-2.009 c 0.08,-0.071 0.23,0 0.18,0.079 l -3.21,4.72 2.411,-1.14 c 0.139,-0.07 0.319,0.05 0.229,0.16 l -2.939,3.56 c 0.139,-0.05 0.449,-0.129 1.119,-0.24 0.2,-0.03 0.35,0.111 0.25,0.23 -2.46,2.91 -3.02,7.99 -3.02,7.99 l -0.02,-0.03 c 0,0 -0.67,-5.03 -3.13,-7.94 -0.109,-0.12 0.06,-0.28 0.261,-0.24 0.649,0.101 0.949,0.18 1.089,0.23 l -2.94,-3.56 c -0.09,-0.11 0.09,-0.23 0.24,-0.16 l 2.401,1.14 -3.201,-4.72 c -0.049,-0.079 0.09,-0.15 0.17,-0.079 l 2.5,2.009 c 0,0 -2.21,-5.71 -3.009,-7.69 -0.051,-0.12 0.17,-0.21 0.29,-0.11 0.699,0.6 1.819,1.48 1.96,1.59 -0.231,-0.32 -5.08,-7.03 -4.721,-6.93 0.37,0.11 3.971,3.66 4.2,3.881 L -134,-38.66 c -0.09,-0.22 0.29,-0.38 0.521,-0.22 l 2.479,1.74 -4.31,-7.61 -3.37,9.7 2.491,-3.95 c 0.099,-0.16 0.349,-0.04 0.279,0.14 l -5.42,13.66 2.74,-2.73 c 0.25,-0.26 0.68,0 0.57,0.34 l -4.54,14.46 c 0.25,-0.349 4.22,-5.95 4.63,-6.11 0.401,-0.16 -4.94,10.38 -5.2,10.91 0.191,-0.17 1.78,-1.57 2.74,-2.53 0.17,-0.17 0.44,0 0.37,0.23 -1.03,3.151 -3.959,12.09 -3.959,12.09 l 2.759,-3.17 c 0.09,-0.1 0.25,0 0.191,0.13 l -3.531,7.43 2.65,-1.78 c 0.16,-0.11 0.36,0.07 0.261,0.24 l -3.241,5.62 c 0.15,-0.08 0.5,-0.21 1.241,-0.38 0.21,-0.06 0.379,0.17 0.269,0.36 -2.71,4.58 -3.33,12.59 -3.33,12.59 l -0.019,-0.05 c 0,0 -0.75,-7.92 -3.46,-12.51 -0.121,-0.2 0.069,-0.44 0.29,-0.39 0.719,0.18 1.049,0.3 1.199,0.38 l -3.239,-5.62 c -0.101,-0.17 0.099,-0.35 0.259,-0.24 l 2.651,1.78 -3.531,-7.43 c -0.06,-0.13 0.1,-0.23 0.19,-0.13 l 2.761,3.17 c 0,0 -2.441,-8.99 -3.33,-12.11 -0.051,-0.2 0.199,-0.329 0.33,-0.17 0.759,0.93 1.949,2.26 2.149,2.48 -0.31,-0.63 -5.6,-11.06 -5.189,-10.9 0.399,0.16 4.37,5.761 4.62,6.11 l -4.531,-14.46 c -0.11,-0.34 0.31,-0.6 0.57,-0.34 l 2.73,2.73 -3.809,-9.6 -5.12,12.92 3.25,-3.26 c 0.299,-0.3 0.809,0.01 0.679,0.42 l -5.4,17.18 c 0.301,-0.42 5.03,-7.07 5.5,-7.26 0.5,-0.2 -6.19,12.98 -6.19,12.98 0,0 1.59,-1.78 2.58,-2.98 0.15,-0.19 0.451,-0.03 0.39,0.2 -1.059,3.71 -3.96,14.39 -3.96,14.39 l 3.28,-3.769 c 0.11,-0.121 0.3,0.009 0.23,0.149 l -4.199,8.84 3.149,-2.13 c 0.191,-0.13 0.43,0.09 0.311,0.3 l -3.851,6.67 c 0.18,-0.1 0.57,-0.24 1.42,-0.45 0.271,-0.06 0.49,0.23 0.351,0.47 -3.221,5.44 -4.111,14.86 -4.111,14.86 l -0.019,0.05 c 0,0 -0.731,-9.509 -3.961,-14.95 -0.13,-0.22 0.07,-0.5 0.33,-0.44 0.881,0.21 1.28,0.36 1.46,0.46 l -3.85,-6.67 c -0.11,-0.21 0.12,-0.43 0.321,-0.3 l 3.139,2.13 -4.189,-8.84 c -0.071,-0.14 0.119,-0.27 0.219,-0.149 l 3.281,3.769 c 0,0 -3.481,-10.62 -4.7,-14.37 -0.09,-0.26 0.239,-0.47 0.439,-0.27 1.21,1.21 3.28,3.03 3.28,3.03 0,0 -6.69,-13.18 -6.2,-12.98 0.47,0.19 5.2,6.84 5.5,7.26 l -5.39,-17.18 c -0.129,-0.41 0.371,-0.72 0.67,-0.42 l 3.25,3.26 -6.429,-16.23 c -0.091,-0.21 0.21,-0.36 0.33,-0.17 l 2.96,4.69 -3.351,-9.63 -6.229,15.7 3.259,-3.25 c 0.3,-0.3 0.8,0 0.67,0.41 l -5.389,17.18 c 0.299,-0.42 5.029,-7.07 5.5,-7.26 0.489,-0.19 -6.201,12.99 -6.201,12.99 0,0 1.6,-1.79 2.59,-2.99 0.151,-0.19 0.45,-0.03 0.38,0.2 -1.05,3.71 -3.95,14.4 -3.95,14.4 l 3.28,-3.78 c 0.1,-0.12 0.29,0.01 0.22,0.15 l -4.189,8.84 3.139,-2.12 c 0.2,-0.13 0.43,0.09 0.32,0.29 l -3.85,6.67 c 0.17,-0.09 0.57,-0.24 1.42,-0.439 0.27,-0.071 0.49,0.219 0.341,0.459 -3.21,5.45 -4.101,14.86 -4.101,14.86 l -0.03,0.05 c 0,0 -0.73,-9.5 -3.949,-14.95 -0.141,-0.22 0.069,-0.49 0.319,-0.43 0.88,0.21 1.29,0.35 1.471,0.45 L -199.5,7.54 c -0.12,-0.2 0.12,-0.42 0.311,-0.29 l 3.149,2.12 -4.2,-8.84 c -0.07,-0.14 0.12,-0.27 0.23,-0.15 l 3.281,3.78 c 0,0 -3.481,-10.63 -4.701,-14.38 -0.09,-0.259 0.241,-0.46 0.43,-0.27 1.221,1.21 3.28,3.04 3.28,3.04 0,0 -6.69,-13.18 -6.19,-12.99 0.471,0.19 5.19,6.84 5.49,7.26 l -5.39,-17.18 c -0.129,-0.41 0.38,-0.71 0.68,-0.41 l 3.25,3.25 -5.09,-12.83 c -1.27,1.91 -3.91,5.55 -4.07,5.78 0.141,-0.11 1.261,-0.99 1.96,-1.59 0.12,-0.1 0.351,-0.01 0.301,0.11 -0.811,1.98 -3.021,7.69 -3.021,7.69 l 2.5,-2.01 c 0.08,-0.07 0.231,0 0.18,0.08 l -3.21,4.72 2.4,-1.14 c 0.151,-0.07 0.33,0.05 0.241,0.16 l -2.941,3.571 c 0.14,-0.061 0.441,-0.131 1.09,-0.241 0.21,-0.04 0.37,0.12 0.261,0.241 -2.45,2.909 -3.131,7.949 -3.131,7.949 l -0.02,0.02 c 0,0 -0.56,-5.08 -3.02,-7.99 -0.1,-0.12 0.051,-0.26 0.25,-0.229 0.671,0.109 0.98,0.189 1.12,0.25 l -2.94,-3.571 c -0.089,-0.11 0.09,-0.23 0.241,-0.16 l 2.399,1.14 -3.2,-4.72 c -0.05,-0.08 0.09,-0.15 0.17,-0.08 l 2.5,2.01 c 0,0 -2.65,-5.67 -3.59,-7.68 -0.06,-0.14 0.19,-0.25 0.34,-0.14 0.92,0.64 2.5,1.62 2.5,1.62 0,0 -5.1,-7.04 -4.73,-6.94 0.37,0.11 3.97,3.66 4.201,3.88 l -3.931,-8.75 -3.04,5.37 2.48,-1.74 c 0.23,-0.16 0.611,0 0.52,0.22 l -4.119,9.18 c 0.229,-0.22 3.829,-3.77 4.199,-3.88 0.36,-0.1 -4.489,6.61 -4.72,6.93 0.14,-0.11 1.26,-0.98 1.96,-1.58 0.12,-0.1 0.34,-0.02 0.29,0.1 -0.8,1.98 -3.019,7.69 -3.019,7.69 l 2.509,-2.01 c 0.081,-0.06 0.22,0 0.17,0.08 l -3.2,4.72 2.401,-1.13 c 0.149,-0.07 0.33,0.04 0.239,0.15 l -2.94,3.57 c 0.13,-0.05 0.44,-0.13 1.09,-0.24 0.2,-0.039 0.37,0.12 0.26,0.25 -2.46,2.91 -3.13,7.94 -3.13,7.94 l -0.02,0.021 c 0,0 -0.56,-5.071 -3.02,-7.981 -0.1,-0.12 0.05,-0.269 0.24,-0.24 0.68,0.12 0.99,0.19 1.12,0.25 l -2.94,-3.57 c -0.08,-0.11 0.1,-0.22 0.24,-0.15 l 2.4,1.13 -3.2,-4.72 c -0.05,-0.08 0.1,-0.14 0.18,-0.08 l 2.5,2.01 c 0,0 -2.66,-5.67 -3.59,-7.67 -0.07,-0.15 0.18,-0.25 0.33,-0.15 0.88,0.62 2.35,1.52 2.5,1.61 -0.21,-0.29 -3.57,-4.93 -4.5,-6.439 l -3.74,11.929 c 0.24,-0.34 4.1,-5.78 4.49,-5.929 0.41,-0.161 -5.07,10.619 -5.07,10.619 0,0 1.31,-1.46 2.12,-2.44 0.12,-0.16 0.37,-0.03 0.31,0.16 -0.86,3.03 -3.23,11.78 -3.23,11.78 l 2.68,-3.09 c 0.09,-0.1 0.24,0.01 0.19,0.12 l -3.43,7.23 2.57,-1.73 c 0.16,-0.11 0.35,0.07 0.26,0.23 l -3.16,5.47 c 0.15,-0.08 0.47,-0.2 1.17,-0.37 0.22,-0.05 0.4,0.18 0.28,0.38 -2.63,4.45 -3.36,12.16 -3.36,12.16 l -0.02,0.04 c 0,0 -0.6,-7.78 -3.23,-12.23 -0.11,-0.19 0.05,-0.41 0.26,-0.36 0.72,0.17 1.05,0.29 1.2,0.38 l -3.15,-5.47 c -0.1,-0.16 0.1,-0.34 0.26,-0.23 l 2.57,1.73 -3.43,-7.23 c -0.06,-0.11 0.1,-0.22 0.18,-0.12 l 2.68,3.07 c -0.16,-0.5 -2.78,-8.51 -3.79,-11.59 l -4.56,11.491 3.18,-3.181 c 0.29,-0.3 0.78,0 0.66,0.4 l -5.27,16.8 c 0.29,-0.41 4.91,-6.92 5.37,-7.1 0.47,-0.18 -5.67,11.93 -6.04,12.66 0.21,-0.22 1.62,-1.8 2.51,-2.89 0.15,-0.18 0.44,-0.03 0.38,0.2 -1.03,3.62 -3.87,14.07 -3.87,14.07 l 3.21,-3.69 c 0.1,-0.11 0.29,0.01 0.22,0.15 l -4.1,8.64 3.07,-2.08 c 0.19,-0.13 0.42,0.09 0.31,0.29 l -3.77,6.52 c 0.18,-0.09 0.57,-0.23 1.4,-0.43 0.26,-0.07 0.47,0.21 0.33,0.45 -3.14,5.32 -4.01,14.53 -4.01,14.53 l -0.02,0.05 c 0,0 -0.72,-9.3 -3.87,-14.62 -0.13,-0.22 0.07,-0.48 0.32,-0.42 0.86,0.2 1.25,0.35 1.43,0.44 l -3.77,-6.52 c -0.11,-0.2 0.12,-0.42 0.31,-0.29 l 3.08,2.08 -4.11,-8.64 c -0.06,-0.14 0.12,-0.26 0.23,-0.15 l 3.2,3.69 c 0,0 -3.4,-10.38 -4.59,-14.05 -0.09,-0.26 0.23,-0.45 0.43,-0.26 1.11,1.11 2.95,2.74 3.18,2.94 -0.24,-0.49 -6.51,-12.86 -6.04,-12.67 0.46,0.18 5.09,6.69 5.38,7.1 l -5.27,-16.8 c -0.13,-0.4 0.36,-0.7 0.66,-0.4 l 3.18,3.181 -6.3,-15.871 c -0.08,-0.2 0.21,-0.35 0.33,-0.16 l 2.89,4.58 -4.87,-14 -4.35,10.98 2.73,-2.73 c 0.26,-0.26 0.68,0 0.57,0.34 l -4.53,14.46 c 0.25,-0.349 4.22,-5.95 4.62,-6.11 0.41,-0.16 -4.88,10.27 -5.19,10.9 0.2,-0.22 1.39,-1.55 2.15,-2.48 0.13,-0.159 0.38,-0.03 0.33,0.17 -0.89,3.12 -3.33,12.11 -3.33,12.11 l 2.76,-3.17 c 0.09,-0.1 0.25,0 0.19,0.13 l -3.53,7.43 2.65,-1.78 c 0.16,-0.11 0.36,0.07 0.26,0.24 l -3.24,5.62 c 0.15,-0.08 0.48,-0.2 1.2,-0.38 0.22,-0.05 0.41,0.19 0.29,0.39 -2.71,4.59 -3.46,12.51 -3.46,12.51 l -0.02,0.05 c 0,0 -0.62,-8.01 -3.33,-12.59 -0.11,-0.19 0.06,-0.42 0.27,-0.36 0.74,0.17 1.09,0.3 1.24,0.38 l -3.24,-5.62 c -0.1,-0.17 0.1,-0.35 0.26,-0.24 l 2.65,1.78 -3.53,-7.43 c -0.06,-0.13 0.1,-0.23 0.19,-0.13 l 2.76,3.17 c 0,0 -2.93,-8.939 -3.96,-12.09 -0.07,-0.23 0.2,-0.4 0.37,-0.23 0.96,0.96 2.55,2.36 2.74,2.53 -0.26,-0.53 -5.6,-11.07 -5.2,-10.91 0.41,0.16 4.38,5.761 4.63,6.11 l -4.54,-14.46 c -0.11,-0.34 0.32,-0.6 0.57,-0.34 l 2.74,2.73 -5.42,-13.66 c -0.07,-0.18 0.18,-0.3 0.28,-0.14 l 2.49,3.95 -3.37,-9.7 -4.31,7.61 2.48,-1.74 c 0.23,-0.16 0.61,0 0.52,0.22 l -4.12,9.181 c 0.23,-0.221 3.83,-3.771 4.2,-3.881 0.36,-0.1 -4.49,6.61 -4.72,6.93 0.14,-0.11 1.26,-0.99 1.96,-1.59 0.12,-0.1 0.34,-0.01 0.29,0.11 -0.8,1.98 -3.01,7.69 -3.01,7.69 l 2.5,-2.009 c 0.08,-0.071 0.22,0 0.17,0.079 l -3.2,4.72 2.4,-1.14 c 0.15,-0.07 0.33,0.05 0.24,0.16 l -2.94,3.56 c 0.14,-0.05 0.44,-0.129 1.09,-0.23 0.2,-0.04 0.37,0.12 0.26,0.24 -2.46,2.91 -3.13,7.94 -3.13,7.94 l -0.02,0.03 c 0,0 -0.56,-5.08 -3.02,-7.99 -0.1,-0.119 0.05,-0.26 0.25,-0.23 0.67,0.111 0.98,0.19 1.12,0.24 l -2.94,-3.56 c -0.09,-0.11 0.09,-0.23 0.23,-0.16 l 2.41,1.14 -3.21,-4.72 c -0.05,-0.079 0.1,-0.15 0.18,-0.079 l 2.5,2.009 c 0,0 -2.65,-5.67 -3.59,-7.68 -0.06,-0.14 0.19,-0.25 0.34,-0.14 0.92,0.64 2.5,1.62 2.5,1.62 0,0 -5.11,-7.04 -4.73,-6.94 0.36,0.11 3.96,3.66 4.19,3.881 l -3.87,-8.641 -3.03,7.65 2.31,-2.3 c 0.21,-0.22 0.57,0 0.48,0.291 l -3.84,12.219 c 0,0 3.56,-5.03 3.91,-5.17 0.35,-0.14 -4.4,9.22 -4.4,9.22 0,0 1.14,-1.269 1.84,-2.12 0.11,-0.13 0.32,-0.02 0.27,0.14 -0.73,2.55 -2.68,9.76 -2.8,10.211 l 2.32,-2.661 c 0.08,-0.089 0.21,0 0.16,0.1 l -2.98,6.28 2.24,-1.51 c 0.13,-0.09 0.3,0.06 0.22,0.21 l -2.74,4.74 c 0.13,-0.07 0.41,-0.17 1.02,-0.32 0.19,-0.04 0.34,0.161 0.24,0.33 -2.29,3.87 -2.92,10.56 -2.92,10.56 l -0.01,0.03 c 0,0 -0.52,-6.75 -2.81,-10.61 -0.1,-0.16 0.05,-0.36 0.23,-0.31 0.62,0.14 0.91,0.25 1.04,0.32 l -2.74,-4.74 c -0.08,-0.15 0.09,-0.3 0.22,-0.21 l 2.24,1.51 -2.98,-6.28 c -0.05,-0.1 0.09,-0.189 0.16,-0.1 l 2.32,2.661 c -0.14,-0.451 -2.49,-7.611 -3.33,-10.191 -0.06,-0.19 0.17,-0.33 0.31,-0.2 0.86,0.86 2.33,2.16 2.33,2.16 0,0 -4.75,-9.36 -4.4,-9.22 0.35,0.14 3.91,5.17 3.91,5.17 l -3.84,-12.219 c -0.09,-0.291 0.27,-0.511 0.48,-0.291 l 2.31,2.3 -4.13,-10.42 -3.4,8.57 1.86,-1.87 c 0.17,-0.17 0.46,0.01 0.39,0.24 l -3.1,9.86 c 0,0 2.88,-4.06 3.16,-4.18 0.27,-0.11 -3.32,7 -3.54,7.43 0.13,-0.139 0.94,-1.06 1.47,-1.7 0.09,-0.1 0.26,-0.01 0.22,0.12 -0.58,2.05 -2.17,7.87 -2.26,8.23 l 1.87,-2.14 c 0.06,-0.07 0.17,0 0.13,0.08 l -2.4,5.07 1.8,-1.22 c 0.11,-0.079 0.25,0.05 0.18,0.171 l -2.21,3.819 c 0.11,-0.06 0.33,-0.14 0.82,-0.26 0.16,-0.03 0.28,0.13 0.2,0.27 -1.85,3.12 -2.35,8.52 -2.35,8.52 l -0.02,0.03 c 0,0 -0.42,-5.45 -2.27,-8.57 -0.07,-0.13 0.04,-0.29 0.19,-0.25 0.5,0.12 0.74,0.2 0.84,0.26 l -2.21,-3.819 c -0.06,-0.121 0.07,-0.25 0.18,-0.171 l 1.81,1.22 -2.41,-5.07 c -0.04,-0.08 0.07,-0.15 0.13,-0.08 l 1.87,2.14 c -0.11,-0.36 -2,-6.14 -2.68,-8.22 -0.05,-0.15 0.14,-0.27 0.25,-0.15 0.65,0.65 1.73,1.61 1.87,1.72 -0.22,-0.43 -3.82,-7.54 -3.54,-7.43 0.28,0.12 3.15,4.18 3.15,4.18 l -3.09,-9.86 c -0.08,-0.23 0.21,-0.41 0.38,-0.24 l 1.87,1.87 -2.93,-7.37 c -1.18,0.7 -2.28,1.4 -3.31,2.09 l -3.68,10.6 2.49,-3.95 c 0.1,-0.16 0.35,-0.029 0.28,0.14 l -5.42,13.66 2.74,-2.73 c 0.25,-0.26 0.68,0 0.57,0.34 l -4.54,14.46 c 0.25,-0.35 4.22,-5.95 4.63,-6.11 0.4,-0.16 -4.89,10.27 -5.2,10.9 0.2,-0.22 1.4,-1.55 2.16,-2.48 0.13,-0.16 0.38,-0.03 0.32,0.17 -0.88,3.121 -3.33,12.11 -3.33,12.11 l 2.76,-3.17 c 0.09,-0.1 0.25,0 0.19,0.13 l -3.53,7.43 2.65,-1.78 c 0.16,-0.11 0.36,0.07 0.27,0.24 l -3.25,5.62 c 0.15,-0.08 0.49,-0.2 1.2,-0.38 0.23,-0.05 0.41,0.19 0.29,0.39 -2.71,4.59 -3.45,12.51 -3.45,12.51 l -0.03,0.05 c 0,0 -0.61,-8 -3.32,-12.59 -0.12,-0.189 0.05,-0.42 0.27,-0.36 0.74,0.171 1.08,0.3 1.23,0.38 l -3.24,-5.62 c -0.1,-0.17 0.1,-0.35 0.26,-0.24 l 2.65,1.78 -3.53,-7.43 c -0.06,-0.13 0.1,-0.23 0.19,-0.13 l 2.76,3.17 c 0,0 -2.92,-8.94 -3.95,-12.09 -0.08,-0.23 0.2,-0.399 0.36,-0.23 0.96,0.96 2.55,2.36 2.74,2.53 -0.26,-0.53 -5.6,-11.07 -5.19,-10.91 0.4,0.16 4.37,5.76 4.62,6.11 l -4.53,-14.46 c -0.11,-0.34 0.31,-0.6 0.57,-0.34 l 2.73,2.73 -2.6,-6.57 c -1.48,0.47 -3.11,0.83 -4.96,1.05 l -3.87,12.35 c 0.25,-0.35 4.22,-5.95 4.63,-6.11 0.4,-0.16 -4.89,10.27 -5.2,10.9 0.2,-0.22 1.39,-1.55 2.15,-2.48 0.13,-0.16 0.38,-0.03 0.33,0.17 -0.89,3.12 -3.33,12.111 -3.33,12.111 l 2.76,-3.171 c 0.09,-0.1 0.25,0 0.19,0.12 l -3.53,7.44 2.65,-1.79 c 0.16,-0.11 0.36,0.08 0.26,0.25 l -3.24,5.62 c 0.15,-0.09 0.48,-0.21 1.2,-0.38 0.23,-0.05 0.41,0.19 0.29,0.39 -2.71,4.58 -3.46,12.51 -3.46,12.51 l -0.02,0.04 c 0,0 -0.61,-8 -3.33,-12.58 -0.11,-0.19 0.06,-0.42 0.28,-0.37 0.74,0.18 1.08,0.3 1.23,0.39 l -3.24,-5.62 c -0.1,-0.17 0.1,-0.36 0.26,-0.25 l 2.65,1.79 -3.53,-7.44 c -0.06,-0.12 0.1,-0.22 0.19,-0.12 l 2.76,3.171 c 0,0 -2.93,-8.941 -3.96,-12.101 -0.07,-0.22 0.21,-0.39 0.37,-0.22 0.96,0.95 2.55,2.36 2.74,2.53 -0.26,-0.53 -5.6,-11.07 -5.19,-10.91 0.4,0.16 4.37,5.76 4.62,6.11 l -3.83,-12.21 c -0.97,1.96 -1.99,3.99 -2.12,4.24 0.14,-0.15 1.04,-1.16 1.61,-1.85 0.09,-0.12 0.28,-0.02 0.24,0.12 -0.64,2.25 -2.36,8.6 -2.46,8.99 l 2.04,-2.34 c 0.06,-0.08 0.18,0 0.14,0.09 l -2.62,5.53 1.96,-1.33 c 0.12,-0.08 0.27,0.06 0.2,0.18 l -2.41,4.18 c 0.11,-0.06 0.36,-0.15 0.89,-0.28 0.17,-0.04 0.3,0.14 0.22,0.29 -2.02,3.4 -2.57,9.3 -2.57,9.3 l -0.02,0.03 c 0,0 -0.45,-5.95 -2.47,-9.349 -0.09,-0.151 0.04,-0.321 0.2,-0.281 0.55,0.13 0.81,0.23 0.92,0.29 l -2.41,-4.18 c -0.07,-0.12 0.07,-0.26 0.19,-0.18 l 1.97,1.33 -2.62,-5.53 c -0.04,-0.09 0.08,-0.17 0.14,-0.09 l 2.04,2.34 c -0.12,-0.39 -2.18,-6.699 -2.93,-8.97 -0.05,-0.17 0.15,-0.29 0.28,-0.17 0.7,0.7 1.89,1.76 2.04,1.89 -0.12,-0.24 -4.18,-8.24 -3.87,-8.11 0.31,0.12 3.45,4.55 3.45,4.55 l -2.08,-6.6 c -1.28,-0.52 -2.53,-1.02 -3.74,-1.5 l -3.11,7.85 3.25,-3.25 c 0.3,-0.31 0.81,0 0.68,0.41 l -5.4,17.18 c 0.3,-0.42 5.03,-7.07 5.5,-7.26 0.5,-0.2 -6.19,12.99 -6.19,12.99 0,0 1.59,-1.79 2.58,-2.99 0.15,-0.19 0.45,-0.03 0.39,0.2 -1.06,3.71 -3.96,14.39 -3.96,14.39 l 3.28,-3.77 c 0.11,-0.12 0.3,0.01 0.23,0.15 l -4.2,8.84 3.15,-2.13 c 0.19,-0.13 0.43,0.09 0.31,0.3 l -3.85,6.67 c 0.18,-0.1 0.57,-0.24 1.42,-0.44 0.27,-0.07 0.49,0.22 0.35,0.46 -3.22,5.44 -4.11,14.861 -4.11,14.861 l -0.02,0.049 c 0,0 -0.73,-9.5 -3.96,-14.95 -0.13,-0.22 0.07,-0.5 0.33,-0.43 0.88,0.2 1.28,0.35 1.46,0.45 l -3.85,-6.67 c -0.11,-0.21 0.12,-0.43 0.31,-0.3 l 3.15,2.13 -4.19,-8.84 c -0.07,-0.14 0.12,-0.27 0.22,-0.15 l 3.28,3.77 c 0,0 -3.48,-10.62 -4.7,-14.37 -0.09,-0.26 0.24,-0.46 0.44,-0.27 1.21,1.21 3.28,3.04 3.28,3.04 0,0 -6.69,-13.19 -6.2,-12.99 0.47,0.19 5.2,6.84 5.5,7.26 l -5.39,-17.18 c -0.13,-0.41 0.37,-0.72 0.67,-0.41 l 3.25,3.25 -3.16,-7.98 -3.92,9.89 2.03,-2.03 c 0.19,-0.19 0.51,0 0.43,0.25 l -3.38,10.76 c 0,0 3.13,-4.43 3.44,-4.55 0.3,-0.12 -3.62,7.63 -3.86,8.1 0.14,-0.15 1.04,-1.15 1.6,-1.85 0.1,-0.11 0.28,-0.01 0.24,0.13 -0.63,2.25 -2.36,8.59 -2.46,8.98 l 2.04,-2.339 c 0.07,-0.071 0.19,0.009 0.14,0.099 l -2.62,5.52 1.97,-1.32 c 0.12,-0.09 0.27,0.05 0.19,0.18 l -2.41,4.17 c 0.12,-0.06 0.36,-0.149 0.89,-0.28 0.17,-0.04 0.31,0.14 0.22,0.29 -2.01,3.41 -2.57,9.3 -2.57,9.3 l -0.01,0.03 c 0,0 -0.46,-5.94 -2.48,-9.35 -0.08,-0.139 0.05,-0.31 0.21,-0.27 0.55,0.131 0.8,0.22 0.91,0.28 l -2.41,-4.17 c -0.07,-0.13 0.08,-0.27 0.2,-0.18 l 1.97,1.32 -2.63,-5.52 c -0.04,-0.09 0.08,-0.17 0.15,-0.099 l 2.04,2.339 c -0.12,-0.39 -2.19,-6.69 -2.93,-8.97 -0.06,-0.16 0.15,-0.29 0.27,-0.16 0.71,0.7 1.89,1.75 2.04,1.88 -0.12,-0.24 -4.17,-8.23 -3.87,-8.11 0.31,0.12 3.45,4.55 3.45,4.55 l -2.34,-7.43 c -1.43,0.93 -2.85,1.78 -4.24,2.54 l -1.98,4.98 2.74,-2.74 c 0.25,-0.25 0.68,0.01 0.57,0.35 l -4.54,14.46 c 0.25,-0.35 4.22,-5.95 4.63,-6.11 0.4,-0.16 -4.89,10.27 -5.2,10.9 0.2,-0.22 1.4,-1.55 2.16,-2.479 0.13,-0.161 0.38,-0.031 0.32,0.169 -0.88,3.12 -3.33,12.11 -3.33,12.11 l 2.76,-3.17 c 0.09,-0.1 0.25,0 0.19,0.12 l -3.53,7.44 2.65,-1.79 c 0.16,-0.11 0.36,0.08 0.27,0.25 l -3.25,5.621 c 0.15,-0.081 0.49,-0.211 1.2,-0.381 0.23,-0.05 0.41,0.19 0.29,0.39 -2.71,4.59 -3.45,12.51 -3.45,12.51 l -0.02,0.04 c 0,0 -0.62,-8 -3.33,-12.58 -0.12,-0.19 0.05,-0.42 0.27,-0.37 0.74,0.18 1.08,0.3 1.23,0.391 L -451.6,18.4 c -0.1,-0.17 0.1,-0.36 0.26,-0.25 l 2.65,1.79 -3.53,-7.44 c -0.06,-0.12 0.1,-0.22 0.19,-0.12 l 2.76,3.17 c 0,0 -2.92,-8.94 -3.95,-12.09 -0.08,-0.23 0.2,-0.4 0.36,-0.23 0.96,0.95 2.55,2.36 2.74,2.53 -0.26,-0.53 -5.6,-11.07 -5.19,-10.91 0.4,0.16 4.38,5.76 4.63,6.11 l -3.57,-11.36 c -0.38,0.08 -0.75,0.15 -1.12,0.21 l -6.47,16.31 3.7,-3.7 c 0.34,-0.35 0.91,0 0.77,0.46 l -6.15,19.58 c 0,0 5.71,-8.06 6.27,-8.29 0.55,-0.22 -6.83,14.33 -7.05,14.77 0.1,-0.12 1.85,-2.06 2.94,-3.39 0.17,-0.21 0.51,-0.029 0.43,0.23 -1.19,4.22 -4.49,16.38 -4.49,16.38 l 3.73,-4.29 c 0.12,-0.14 0.33,0 0.25,0.17 l -4.77,10.05 3.58,-2.42 c 0.22,-0.149 0.49,0.11 0.36,0.34 l -4.38,7.59 c 0.2,-0.11 0.65,-0.28 1.62,-0.51 0.3,-0.069 0.55,0.26 0.39,0.53 -3.67,6.2 -4.67,16.91 -4.67,16.91 l -0.03,0.06 c 0,0 -0.83,-10.819 -4.5,-17.01 -0.16,-0.26 0.08,-0.57 0.37,-0.5 1,0.24 1.46,0.41 1.66,0.52 l -4.38,-7.59 c -0.13,-0.23 0.14,-0.489 0.36,-0.34 l 3.58,2.42 -4.78,-10.05 c -0.07,-0.17 0.14,-0.31 0.26,-0.17 l 3.73,4.29 c 0,0 -2.75,-8.41 -4.47,-13.67 -0.34,-1.05 -0.65,-1.98 -0.88,-2.69 -0.09,-0.3 0.28,-0.529 0.5,-0.3 0.12,0.12 0.25,0.24 0.38,0.37 1.32,1.28 3.16,2.91 3.34,3.07 -0.1,-0.2 -1.69,-3.35 -3.34,-6.69 -1.96,-3.97 -4,-8.2 -3.699,-8.08 0.299,0.12 2.099,2.53 3.699,4.71 1.36,1.87 2.57,3.58 2.57,3.58 l -2.57,-8.18 -3.58,-11.4 c -0.139,-0.46 0.43,-0.81 0.77,-0.46 l 3.7,3.7 -0.89,-2.25 -6.43,-16.22 c -0.1,-0.24 0.24,-0.41 0.37,-0.19 l 3.37,5.34 -8.09,-23.29 c -0.18,-0.52 0.52,-0.88 0.84,-0.43 l 7.25,10.17 -8.17,-16 h 10.86 v -31.68 h 500 V 1.44 l -1.24,2.43 1.24,-1.74 5.14,-7.2 c 0.28,-0.4 0.891,-0.08 0.73,0.37"
           style="fill:#002244;fill-opacity:1;fill-rule:nonzero;stroke:none"
           id="path7366"
           inkscape:connector-curvature="0" />
      </g>
      <g
         id="g7368"
         style="fill:#000bac;fill-opacity:1">
        <g
           id="g7370"
           style="fill:#000bac;fill-opacity:1" />
        <g
           id="g7382"
           style="fill:#000bac;fill-opacity:1">
          <g
             clip-path="url(#clipPath7374-3-0)"
             id="g7380"
             style="opacity:0.5;fill:#000bac;fill-opacity:1">
            <g
               transform="translate(305.2715,208.6888)"
               id="g7378"
               style="fill:#000bac;fill-opacity:1">
              <path
                 d="M 0,0 7.729,-11.506 11,-9 Z"
                 style="fill:#000bac;fill-opacity:1;fill-rule:nonzero;stroke:none"
                 id="path7376"
                 inkscape:connector-curvature="0" />
            </g>
          </g>
        </g>
      </g>
    </g>
  </g>
</svg>
