<?xml version="1.0" encoding="UTF-8" standalone="no"?>
<!-- Created with Inkscape (http://www.inkscape.org/) -->

<svg
   xmlns:dc="http://purl.org/dc/elements/1.1/"
   xmlns:cc="http://creativecommons.org/ns#"
   xmlns:rdf="http://www.w3.org/1999/02/22-rdf-syntax-ns#"
   xmlns:svg="http://www.w3.org/2000/svg"
   xmlns="http://www.w3.org/2000/svg"
   xmlns:xlink="http://www.w3.org/1999/xlink"
   xmlns:sodipodi="http://sodipodi.sourceforge.net/DTD/sodipodi-0.dtd"
   xmlns:inkscape="http://www.inkscape.org/namespaces/inkscape"
   version="1.1"
   id="svg2"
   xml:space="preserve"
   width="960"
   height="672"
   viewBox="0 0 960 672"
   sodipodi:docname="onemiracle.svg"
   inkscape:version="0.92.4 (5da689c313, 2019-01-14)"
   inkscape:export-filename="C:\Users\MrCookiez\Desktop\Projects\onemiracle\src\assets\images\onemiracle.png"
   inkscape:export-xdpi="145.64"
   inkscape:export-ydpi="145.64"><metadata
     id="metadata8"><rdf:RDF><cc:Work
         rdf:about=""><dc:format>image/svg+xml</dc:format><dc:type
           rdf:resource="http://purl.org/dc/dcmitype/StillImage" /><dc:title></dc:title></cc:Work></rdf:RDF></metadata><defs
     id="defs6"><linearGradient
       inkscape:collect="always"
       id="linearGradient4693"><stop
         style="stop-color:#28a0c9;stop-opacity:1;"
         offset="0"
         id="stop4689" /><stop
         style="stop-color:#28a0c9;stop-opacity:0;"
         offset="1"
         id="stop4691" /></linearGradient><clipPath
       clipPathUnits="userSpaceOnUse"
       id="clipPath24"><path
         d="M 0,504 H 720 V 0 H 0 Z"
         id="path22"
         inkscape:connector-curvature="0" /></clipPath><linearGradient
       inkscape:collect="always"
       xlink:href="#linearGradient4693"
       id="linearGradient4695"
       x1="266.91177"
       y1="321.78479"
       x2="510.60159"
       y2="514.32159"
       gradientUnits="userSpaceOnUse" /></defs><sodipodi:namedview
     pagecolor="#ffffff"
     bordercolor="#666666"
     borderopacity="1"
     objecttolerance="10"
     gridtolerance="10"
     guidetolerance="10"
     inkscape:pageopacity="0"
     inkscape:pageshadow="2"
     inkscape:window-width="1920"
     inkscape:window-height="1001"
     id="namedview4"
     showgrid="false"
     inkscape:zoom="0.49665833"
     inkscape:cx="516.02938"
     inkscape:cy="320.4908"
     inkscape:window-x="-9"
     inkscape:window-y="-9"
     inkscape:window-maximized="1"
     inkscape:current-layer="g10" /><g
     id="g10"
     inkscape:groupmode="layer"
     inkscape:label="OneMiracle-R1"
     transform="matrix(1.3333333,0,0,-1.3333333,0,672)"><text
       transform="matrix(1,0,0,-1,36.6494,88.7715)"
       style="font-variant:normal;font-weight:normal;font-stretch:normal;font-size:155.87139893px;font-family:REZ;-inkscape-font-specification:REZ;writing-mode:lr-tb;fill:#709fb0;fill-opacity:1;fill-rule:nonzero;stroke:none"
       id="text16"><tspan
         x="0 74.662399 149.3248"
         y="0"
         sodipodi:role="line"
         id="tspan12"
         style="fill:#c5d2db;fill-opacity:1">One</tspan><tspan
         x="218.68758 349.61954 368.01239 414.1503 488.03336 558.17548 577.34766"
         y="0"
         sodipodi:role="line"
         id="tspan14"
         style="fill:#29a2cc;fill-opacity:1">Miracle</tspan></text>
<g
       id="g18"><g
         id="g20"
         clip-path="url(#clipPath24)"><g
           id="g26"
           transform="translate(722.39447,249.09078)" /><g
           id="g30"
           transform="translate(657.20681,292.88346)"
           style="fill:#29a2cc;fill-opacity:1;stroke:#000000;stroke-width:0;stroke-miterlimit:4;stroke-dasharray:none;stroke-opacity:1" /><g
           id="g34"
           transform="translate(794.41621,309.59798)" /><path
           d="m 453.21807,321.78481 c 0,-51.44591 -41.70572,-93.15467 -93.15461,-93.15467 -51.44594,0 -93.15169,41.70876 -93.15169,93.15467 0,51.44587 41.70575,93.15463 93.15169,93.15463 51.44889,0 93.15461,-41.70876 93.15461,-93.15463"
           style="fill:#ffb530;fill-opacity:1;fill-rule:nonzero;stroke:none;stroke-width:2.99696422"
           id="path232"
           inkscape:connector-curvature="0" /><path
           d="m 271.18004,196.19491 c -11.12171,0 -20.1396,3.15879 -26.53213,9.55433 -13.04278,13.03979 -12.62622,37.42308 1.1778,68.65446 13.19267,29.84676 37.14738,62.97519 67.4527,93.28052 30.30531,30.30828 63.43376,54.26003 93.27751,67.45266 31.23138,13.80104 55.61467,14.2206 68.65747,1.17482 15.93787,-15.93787 11.75109,-48.34104 -11.48736,-88.89895 -1.29169,-2.25973 -4.16879,-3.03894 -6.42551,-1.74424 -2.25671,1.29468 -3.03891,4.17176 -1.74423,6.4285 20.34642,35.51102 25.33035,65.22893 13.00083,77.55843 -9.9499,9.95891 -31.16541,8.81106 -58.19505,-3.13183 -28.80982,-12.73111 -60.92228,-35.99356 -90.42741,-65.49566 -29.50212,-29.50513 -52.76154,-61.62059 -65.49567,-90.43041 -11.94591,-27.02662 -13.08775,-48.23614 -3.13481,-58.19207 12.51233,-12.50633 42.72173,-7.24963 78.84414,13.74108 2.24772,1.3007 5.13079,0.53947 6.43449,-1.70525 1.30966,-2.24772 0.54247,-5.13081 -1.70529,-6.43448 -24.88378,-14.46037 -46.73465,-21.81191 -63.69748,-21.81191"
           style="fill:#626065;fill-opacity:1;fill-rule:nonzero;stroke:none;stroke-width:2.99696422"
           id="path236"
           inkscape:connector-curvature="0" /><path
           d="m 448.73699,196.25934 c -11.83498,0 -26.09756,3.55743 -42.17924,10.66618 -29.84677,13.19268 -62.97522,37.14438 -93.28053,67.45269 -30.30529,30.30531 -54.26003,63.43077 -67.44968,93.27754 -13.80401,31.23437 -14.22358,55.61468 -1.18083,68.65744 15.02683,15.03878 45.28717,12.04179 83.00395,-8.21466 2.29267,-1.22877 3.15278,-4.08189 1.92105,-6.37456 -1.23176,-2.28967 -4.08485,-3.14681 -6.37455,-1.91805 -33.30225,17.8799 -60.17902,21.56315 -71.89116,9.85101 -9.95292,-9.95592 -8.81408,-31.16542 3.13179,-58.19204 12.73411,-28.81284 35.99657,-60.9283 65.49869,-90.43041 29.50215,-29.50513 61.61758,-52.76455 90.42738,-65.49566 27.02965,-11.95189 48.23916,-13.08772 58.19207,-3.13183 12.41945,12.41941 7.29763,42.38008 -13.36644,78.19679 -1.30069,2.25073 -0.52749,5.13079 1.72628,6.42849 2.24772,1.30368 5.13378,0.53047 6.42847,-1.72027 23.58609,-40.87858 27.91071,-73.52451 11.87095,-89.56427 -6.32959,-6.32961 -15.32648,-9.48839 -26.4782,-9.48839"
           style="fill:#626065;fill-opacity:1;fill-rule:nonzero;stroke:none;stroke-width:2.99696422"
           id="path240"
           inkscape:connector-curvature="0" /><path
           d="m 270.16288,428.26335 c 0,-13.52231 -10.9629,-24.48218 -24.48222,-24.48218 -13.52229,0 -24.48519,10.95987 -24.48519,24.48218 0,13.52231 10.9629,24.4822 24.48519,24.4822 13.51932,0 24.48222,-10.95989 24.48222,-24.4822"
           style="fill:#0ebec7;fill-opacity:1;fill-rule:nonzero;stroke:none;stroke-width:2.99696422"
           id="path244"
           inkscape:connector-curvature="0" /><path
           d="m 270.16288,206.98307 c 0,-13.52229 -10.9629,-24.4822 -24.48222,-24.4822 -13.52229,0 -24.48519,10.95991 -24.48519,24.4822 0,13.5223 10.9629,24.48222 24.48519,24.48222 13.51932,0 24.48222,-10.95992 24.48222,-24.48222"
           style="fill:#387fc1;fill-opacity:1;fill-rule:nonzero;stroke:none;stroke-width:2.99696422"
           id="path248"
           inkscape:connector-curvature="0" /><path
           d="m 497.46104,206.98307 c 0,-13.52229 -10.96286,-24.4822 -24.48218,-24.4822 -13.52232,0 -24.48521,10.95991 -24.48521,24.4822 0,13.5223 10.96289,24.48222 24.48521,24.48222 13.51932,0 24.48218,-10.95992 24.48218,-24.48222"
           style="fill:#709fb0;fill-opacity:1;fill-rule:nonzero;stroke:none;stroke-width:2.99696422"
           id="path252"
           inkscape:connector-curvature="0" /></g><g
         clip-path="url(#clipPath24)"
         id="g4651"><g
           transform="translate(722.39447,249.09078)"
           id="g4631" /><g
           style="fill:#29a2cc;fill-opacity:1;stroke:#000000;stroke-width:0;stroke-miterlimit:4;stroke-dasharray:none;stroke-opacity:1"
           transform="translate(657.20681,292.88346)"
           id="g4635" /><g
           transform="translate(794.41621,309.59798)"
           id="g4637" /><path
           inkscape:connector-curvature="0"
           id="path4639"
           style="fill:url(#linearGradient4695);fill-opacity:1;fill-rule:nonzero;stroke:none;stroke-width:2.99696422"
           d="m 453.21807,321.78481 c 0,-51.44591 -41.70572,-93.15467 -93.15461,-93.15467 -51.44594,0 -93.15169,41.70876 -93.15169,93.15467 0,51.44587 41.70575,93.15463 93.15169,93.15463 51.44889,0 93.15461,-41.70876 93.15461,-93.15463" /><path
           inkscape:connector-curvature="0"
           id="path4641"
           style="fill:#626065;fill-opacity:1;fill-rule:nonzero;stroke:none;stroke-width:2.99696422"
           d="m 271.18004,196.19491 c -11.12171,0 -20.1396,3.15879 -26.53213,9.55433 -13.04278,13.03979 -12.62622,37.42308 1.1778,68.65446 13.19267,29.84676 37.14738,62.97519 67.4527,93.28052 30.30531,30.30828 63.43376,54.26003 93.27751,67.45266 31.23138,13.80104 55.61467,14.2206 68.65747,1.17482 15.93787,-15.93787 11.75109,-48.34104 -11.48736,-88.89895 -1.29169,-2.25973 -4.16879,-3.03894 -6.42551,-1.74424 -2.25671,1.29468 -3.03891,4.17176 -1.74423,6.4285 20.34642,35.51102 25.33035,65.22893 13.00083,77.55843 -9.9499,9.95891 -31.16541,8.81106 -58.19505,-3.13183 -28.80982,-12.73111 -60.92228,-35.99356 -90.42741,-65.49566 -29.50212,-29.50513 -52.76154,-61.62059 -65.49567,-90.43041 -11.94591,-27.02662 -13.08775,-48.23614 -3.13481,-58.19207 12.51233,-12.50633 42.72173,-7.24963 78.84414,13.74108 2.24772,1.3007 5.13079,0.53947 6.43449,-1.70525 1.30966,-2.24772 0.54247,-5.13081 -1.70529,-6.43448 -24.88378,-14.46037 -46.73465,-21.81191 -63.69748,-21.81191" /><path
           inkscape:connector-curvature="0"
           id="path4643"
           style="fill:#626065;fill-opacity:1;fill-rule:nonzero;stroke:none;stroke-width:2.99696422"
           d="m 448.73699,196.25934 c -11.83498,0 -26.09756,3.55743 -42.17924,10.66618 -29.84677,13.19268 -62.97522,37.14438 -93.28053,67.45269 -30.30529,30.30531 -54.26003,63.43077 -67.44968,93.27754 -13.80401,31.23437 -14.22358,55.61468 -1.18083,68.65744 15.02683,15.03878 45.28717,12.04179 83.00395,-8.21466 2.29267,-1.22877 3.15278,-4.08189 1.92105,-6.37456 -1.23176,-2.28967 -4.08485,-3.14681 -6.37455,-1.91805 -33.30225,17.8799 -60.17902,21.56315 -71.89116,9.85101 -9.95292,-9.95592 -8.81408,-31.16542 3.13179,-58.19204 12.73411,-28.81284 35.99657,-60.9283 65.49869,-90.43041 29.50215,-29.50513 61.61758,-52.76455 90.42738,-65.49566 27.02965,-11.95189 48.23916,-13.08772 58.19207,-3.13183 12.41945,12.41941 7.29763,42.38008 -13.36644,78.19679 -1.30069,2.25073 -0.52749,5.13079 1.72628,6.42849 2.24772,1.30368 5.13378,0.53047 6.42847,-1.72027 23.58609,-40.87858 27.91071,-73.52451 11.87095,-89.56427 -6.32959,-6.32961 -15.32648,-9.48839 -26.4782,-9.48839" /><path
           inkscape:connector-curvature="0"
           id="path4645"
           style="fill:#0ebec7;fill-opacity:1;fill-rule:nonzero;stroke:none;stroke-width:2.99696422"
           d="m 270.16288,428.26335 c 0,-13.52231 -10.9629,-24.48218 -24.48222,-24.48218 -13.52229,0 -24.48519,10.95987 -24.48519,24.48218 0,13.52231 10.9629,24.4822 24.48519,24.4822 13.51932,0 24.48222,-10.95989 24.48222,-24.4822" /><path
           inkscape:connector-curvature="0"
           id="path4647"
           style="fill:#387fc1;fill-opacity:1;fill-rule:nonzero;stroke:none;stroke-width:2.99696422"
           d="m 270.16288,206.98307 c 0,-13.52229 -10.9629,-24.4822 -24.48222,-24.4822 -13.52229,0 -24.48519,10.95991 -24.48519,24.4822 0,13.5223 10.9629,24.48222 24.48519,24.48222 13.51932,0 24.48222,-10.95992 24.48222,-24.48222" /><path
           inkscape:connector-curvature="0"
           id="path4649"
           style="fill:#709fb0;fill-opacity:1;fill-rule:nonzero;stroke:none;stroke-width:2.99696422"
           d="m 497.46104,206.98307 c 0,-13.52229 -10.96286,-24.4822 -24.48218,-24.4822 -13.52232,0 -24.48521,10.95991 -24.48521,24.4822 0,13.5223 10.96289,24.48222 24.48521,24.48222 13.51932,0 24.48218,-10.95992 24.48218,-24.48222" /></g></g></g></svg>