<?xml version="1.0" encoding="UTF-8" standalone="no"?>
<!-- Generator: Adobe Illustrator 19.0.0, SVG Export Plug-In . SVG Version: 6.00 Build 0)  -->

<svg
   xmlns:dc="http://purl.org/dc/elements/1.1/"
   xmlns:cc="http://creativecommons.org/ns#"
   xmlns:rdf="http://www.w3.org/1999/02/22-rdf-syntax-ns#"
   xmlns:svg="http://www.w3.org/2000/svg"
   xmlns="http://www.w3.org/2000/svg"
   xmlns:xlink="http://www.w3.org/1999/xlink"
   xmlns:sodipodi="http://sodipodi.sourceforge.net/DTD/sodipodi-0.dtd"
   xmlns:inkscape="http://www.inkscape.org/namespaces/inkscape"
   version="1.1"
   id="Layer_1"
   x="0px"
   y="0px"
   viewBox="0 0 473.931 473.931"
   style="enable-background:new 0 0 473.931 473.931;"
   xml:space="preserve"
   sodipodi:docname="instagram.svg"
   inkscape:version="0.92.4 (5da689c313, 2019-01-14)"><metadata
   id="metadata915"><rdf:RDF><cc:Work
       rdf:about=""><dc:format>image/svg+xml</dc:format><dc:type
         rdf:resource="http://purl.org/dc/dcmitype/StillImage" /></cc:Work></rdf:RDF></metadata><defs
   id="defs913"><linearGradient
     inkscape:collect="always"
     id="linearGradient4762"><stop
       style="stop-color:#cf547b;stop-opacity:1;"
       offset="0"
       id="stop4758" /><stop
       style="stop-color:#f9ed32;stop-opacity:1"
       offset="1"
       id="stop4760" /></linearGradient><linearGradient
     inkscape:collect="always"
     xlink:href="#linearGradient4762"
     id="linearGradient4764"
     x1="69.212692"
     y1="206.465"
     x2="452.2287"
     y2="208.81119"
     gradientUnits="userSpaceOnUse"
     gradientTransform="matrix(1.0441315,0,0,1.0470554,-1.008743,-3.2217689)" /></defs><sodipodi:namedview
   pagecolor="#ffffff"
   bordercolor="#666666"
   borderopacity="1"
   objecttolerance="10"
   gridtolerance="10"
   guidetolerance="10"
   inkscape:pageopacity="0"
   inkscape:pageshadow="2"
   inkscape:window-width="1920"
   inkscape:window-height="1001"
   id="namedview911"
   showgrid="false"
   inkscape:snap-page="false"
   inkscape:zoom="0.60276947"
   inkscape:cx="189.56893"
   inkscape:cy="426.73156"
   inkscape:window-x="-9"
   inkscape:window-y="-9"
   inkscape:window-maximized="1"
   inkscape:current-layer="Layer_1" />




<g
   id="g880">
</g>
<g
   id="g882">
</g>
<g
   id="g884">
</g>
<g
   id="g886">
</g>
<g
   id="g888">
</g>
<g
   id="g890">
</g>
<g
   id="g892">
</g>
<g
   id="g894">
</g>
<g
   id="g896">
</g>
<g
   id="g898">
</g>
<g
   id="g900">
</g>
<g
   id="g902">
</g>
<g
   id="g904">
</g>
<g
   id="g906">
</g>
<g
   id="g908">
</g>
<ellipse
   style="opacity:1;fill:url(#linearGradient4764);fill-opacity:1;stroke:#000000;stroke-width:1.9344883;stroke-linejoin:round;stroke-miterlimit:4;stroke-dasharray:none;stroke-opacity:0;paint-order:markers fill stroke"
   id="path4739"
   cx="237.22789"
   cy="238.13857"
   rx="234.56204"
   ry="233.99055" /><g
   inkscape:groupmode="layer"
   id="layer1"
   inkscape:label="Layer 1" /><path
   style="fill:#666666;stroke-width:1.00030732;fill-opacity:1;opacity:0.159"
   d="m 470.78678,254.95772 -129.6782,-131.1625 -8.55677,8.7138 -16.90659,-17.10413 -15.5075,15.79106 -14.21452,-14.37721 -55.31479,56.33385 -59.27916,-59.96469 -5.74244,5.84783 4.19351,4.24151 -2.58772,2.63621 -12.11625,-12.25494 -5.97205,6.08161 5.59234,5.65637 -5.36542,5.4639 -10.48726,-10.60733 -12.45272,12.68122 11.41883,11.54954 -11.34142,11.54954 3.96237,4.00772 -3.9355,4.00773 9.5547,9.66408 -19.20946,19.56196 47.16682,47.70271 -9.80067,9.97748 31.12505,31.4773 -57.31769,58.36646 128.50054,129.97136 C 370.20928,461.40537 460.74753,370.02383 470.78678,254.95772 Z"
   id="path870"
   inkscape:connector-curvature="0" /><g
   id="g878"
   transform="translate(-1.1610877,-5.1121618)"
   style="fill:#e3dbdb">
	<path
   style="fill:#e3dbdb"
   d="m 358.689,204.966 c -23.023,0 -46.057,0 -69.08,0 26.959,44.418 -3.918,102.861 -59.636,97.424 -34.039,-3.319 -65.181,-39.902 -51.371,-81.481 0.868,-2.63 2.72,-5.5 4.131,-8.266 1.34,-2.63 3.6,-5.714 2.952,-7.678 -22.638,0 -68.493,0 -68.493,0 v 113.959 c 2.297,22.29 19.828,39.809 42.51,41.919 h 78.528 78.532 c 22.724,-2.342 39.67,-21.257 41.919,-41.328 0.008,0.001 0.008,-94.766 0.008,-114.549 z"
   id="path872"
   inkscape:connector-curvature="0" />
	<path
   style="fill:#e3dbdb"
   d="m 231.746,193.748 c -9.28,1.115 -14.267,3.121 -18.9,5.904 -10.638,6.387 -20.647,18.297 -22.436,34.245 -3.618,32.194 20,54.323 47.236,54.323 21.698,0 48.097,-15.502 47.827,-47.823 -0.246,-29.433 -23.729,-50.256 -53.727,-46.649 z m 40.74,56.089 c -3.955,16.292 -22.035,28.613 -40.74,25.979 -17.882,-2.514 -37.1,-24.737 -26.578,-49.593 3.876,-9.149 12.617,-19.412 30.705,-20.666 22.219,-1.541 42.907,18.316 36.613,44.28 z"
   id="path874"
   inkscape:connector-curvature="0" />
	<path
   style="fill:#e3dbdb"
   d="m 345.11,131.751 c -6.511,-6.511 -17.167,-12.482 -28.931,-13.579 h -78.293 -0.217 -56.1 v 61.414 H 171.53 v -61.414 h -6.196 v 61.414 h -10.047 v -60.83 c -2.223,0.423 -4.4,1.007 -6.492,1.729 v 59.101 h -10.039 v -54.33 c -3.195,1.972 -6.013,4.198 -8.314,6.492 -13.351,13.354 -14.424,36.314 -13.579,65.544 h 74.989 c 3.042,-0.707 6.694,-4.464 9.448,-6.496 10.103,-7.439 23.098,-11.498 36.288,-11.641 h 0.374 c 13.19,0.142 26.189,4.202 36.288,11.641 2.758,2.032 6.402,5.789 9.444,6.496 h 74.989 c 0.343,-29.519 -0.215,-52.187 -13.573,-65.541 z m -10.297,39.831 c 0,3.442 -2.788,6.23 -6.223,6.23 h -25.942 c -3.435,0 -6.223,-2.788 -6.223,-6.23 v -25.934 c 0,-3.439 2.788,-6.223 6.223,-6.223 h 25.942 c 3.435,0 6.223,2.784 6.223,6.223 z"
   id="path876"
   inkscape:connector-curvature="0" />
</g></svg>