<?xml version="1.0" encoding="UTF-8" standalone="no"?>
<!-- Created with Inkscape (http://www.inkscape.org/) -->

<svg
   xmlns:dc="http://purl.org/dc/elements/1.1/"
   xmlns:cc="http://creativecommons.org/ns#"
   xmlns:rdf="http://www.w3.org/1999/02/22-rdf-syntax-ns#"
   xmlns:svg="http://www.w3.org/2000/svg"
   xmlns="http://www.w3.org/2000/svg"
   xmlns:sodipodi="http://sodipodi.sourceforge.net/DTD/sodipodi-0.dtd"
   xmlns:inkscape="http://www.inkscape.org/namespaces/inkscape"
   version="1.1"
   id="svg815"
   xml:space="preserve"
   width="666.66669"
   height="666.66669"
   viewBox="0 0 666.66669 666.66669"
   sodipodi:docname="bgFooter.svg"
   inkscape:version="0.92.4 (5da689c313, 2019-01-14)"><metadata
     id="metadata821"><rdf:RDF><cc:Work
         rdf:about=""><dc:format>image/svg+xml</dc:format><dc:type
           rdf:resource="http://purl.org/dc/dcmitype/StillImage" /><dc:title></dc:title></cc:Work></rdf:RDF></metadata><defs
     id="defs819"><clipPath
       clipPathUnits="userSpaceOnUse"
       id="clipPath831"><path
         d="M 0,500 H 500 V 0 H 0 Z"
         id="path829"
         inkscape:connector-curvature="0" /></clipPath><clipPath
       clipPathUnits="userSpaceOnUse"
       id="clipPath839"><path
         d="M -7941,8441 H 8495 V -7975 H -7941 Z"
         id="path837"
         inkscape:connector-curvature="0" /></clipPath><clipPath
       clipPathUnits="userSpaceOnUse"
       id="clipPath843"><path
         d="M -7941,8441 H 8495 V -7975 H -7941 Z"
         id="path841"
         inkscape:connector-curvature="0" /></clipPath><mask
       maskUnits="userSpaceOnUse"
       x="0"
       y="0"
       width="1"
       height="1"
       id="mask845"><g
         id="g861"><g
           clip-path="url(#clipPath839)"
           id="g859"><path
             d="M -7941,8441 H 8495 V -7975 H -7941 Z"
             style="fill:#000000;fill-opacity:1;fill-rule:nonzero;stroke:none"
             id="path847"
             inkscape:connector-curvature="0" /><g
             id="g857"><g
               id="g849" /><g
               id="g855"><g
                 clip-path="url(#clipPath843)"
                 id="g853"><path
                   d="m 1280.467,0 h -750 v 500 h 750 z"
                   style="fill:#ffffff;fill-opacity:1;fill-rule:nonzero;stroke:none"
                   id="path851"
                   inkscape:connector-curvature="0" /></g></g></g></g></g></mask><clipPath
       clipPathUnits="userSpaceOnUse"
       id="clipPath869"><path
         d="M -7941,8441 H 8495 V -7975 H -7941 Z"
         id="path867"
         inkscape:connector-curvature="0" /></clipPath><clipPath
       clipPathUnits="userSpaceOnUse"
       id="clipPath873"><path
         d="M -7941,8441 H 8442 V -7942 H -7941 Z"
         id="path871"
         inkscape:connector-curvature="0" /></clipPath><clipPath
       clipPathUnits="userSpaceOnUse"
       id="clipPath893"><path
         d="M 0,500 H 500 V 0 H 0 Z"
         id="path891"
         inkscape:connector-curvature="0" /></clipPath><clipPath
       clipPathUnits="userSpaceOnUse"
       id="clipPath901"><path
         d="M -8599,8441 H 7837 V -7975 H -8599 Z"
         id="path899"
         inkscape:connector-curvature="0" /></clipPath><clipPath
       clipPathUnits="userSpaceOnUse"
       id="clipPath905"><path
         d="M -8599,8441 H 7837 V -7975 H -8599 Z"
         id="path903"
         inkscape:connector-curvature="0" /></clipPath><mask
       maskUnits="userSpaceOnUse"
       x="0"
       y="0"
       width="1"
       height="1"
       id="mask907"><g
         id="g923"><g
           clip-path="url(#clipPath901)"
           id="g921"><path
             d="M -8599,8441 H 7837 V -7975 H -8599 Z"
             style="fill:#000000;fill-opacity:1;fill-rule:nonzero;stroke:none"
             id="path909"
             inkscape:connector-curvature="0" /><g
             id="g919"><g
               id="g911" /><g
               id="g917"><g
                 clip-path="url(#clipPath905)"
                 id="g915"><path
                   d="M 500,0 H 0 v 500 h 500 z"
                   style="fill:#ffffff;fill-opacity:1;fill-rule:nonzero;stroke:none"
                   id="path913"
                   inkscape:connector-curvature="0" /></g></g></g></g></g></mask><clipPath
       clipPathUnits="userSpaceOnUse"
       id="clipPath931"><path
         d="M -8599,8441 H 7837 V -7975 H -8599 Z"
         id="path929"
         inkscape:connector-curvature="0" /></clipPath><linearGradient
       x1="0"
       y1="0"
       x2="1"
       y2="0"
       gradientUnits="userSpaceOnUse"
       gradientTransform="matrix(-602.0033,-602.0033,-602.0033,602.0033,545,545)"
       spreadMethod="pad"
       id="linearGradient943"><stop
         style="stop-opacity:1;stop-color:#052a52"
         offset="0"
         id="stop937" /><stop
         style="stop-opacity:1;stop-color:#052a52"
         offset="0.59029323"
         id="stop939" /><stop
         style="stop-opacity:1;stop-color:#1783cf"
         offset="1"
         id="stop941" /></linearGradient><clipPath
       clipPathUnits="userSpaceOnUse"
       id="clipPath947"><path
         d="M 172.415,389.764 H 310.651 V 161.41 H 172.415 Z"
         id="path945"
         inkscape:connector-curvature="0" /></clipPath><clipPath
       clipPathUnits="userSpaceOnUse"
       id="clipPath951"><path
         d="M -142.222,556.094 H 285.3 V 338.166 h -427.522 z"
         id="path949"
         inkscape:connector-curvature="0" /></clipPath><clipPath
       clipPathUnits="userSpaceOnUse"
       id="clipPath955"><path
         d="M 201.67,510.324 H 641.11 V 403.613 H 201.67 Z"
         id="path953"
         inkscape:connector-curvature="0" /></clipPath><clipPath
       clipPathUnits="userSpaceOnUse"
       id="clipPath959"><path
         d="m 403.639,403.916 h 48.014 V 6.23808 h -48.014 z"
         id="path957"
         inkscape:connector-curvature="0" /></clipPath><clipPath
       clipPathUnits="userSpaceOnUse"
       id="clipPath963"><path
         d="M 153.716,213.914 H 648.371 V -15.4515 H 153.716 Z"
         id="path961"
         inkscape:connector-curvature="0" /></clipPath><clipPath
       clipPathUnits="userSpaceOnUse"
       id="clipPath967"><path
         d="M -62.478,516.558 H 188.614 V 338.129 H -62.478 Z"
         id="path965"
         inkscape:connector-curvature="0" /></clipPath><clipPath
       clipPathUnits="userSpaceOnUse"
       id="clipPath971"><path
         d="m 239.616,353 h 6.768 v -6.769 h -6.768 z"
         id="path969"
         inkscape:connector-curvature="0" /></clipPath><clipPath
       clipPathUnits="userSpaceOnUse"
       id="clipPath975"><path
         d="M -8599,8441 H 7784 V -7942 H -8599 Z"
         id="path973"
         inkscape:connector-curvature="0" /></clipPath><clipPath
       clipPathUnits="userSpaceOnUse"
       id="clipPath979"><path
         d="M 58.4088,287.528 H 140.826 V 151.562 H 58.4088 Z"
         id="path977"
         inkscape:connector-curvature="0" /></clipPath><clipPath
       clipPathUnits="userSpaceOnUse"
       id="clipPath983"><path
         d="M -16.4395,36.9437 H 38.9384 V 10.607 h -55.3779 z"
         id="path981"
         inkscape:connector-curvature="0" /></clipPath><clipPath
       clipPathUnits="userSpaceOnUse"
       id="clipPath987"><path
         d="M -147.075,415.821 H 253.01 V -17.2604 h -400.085 z"
         id="path985"
         inkscape:connector-curvature="0" /></clipPath><clipPath
       clipPathUnits="userSpaceOnUse"
       id="clipPath991"><path
         d="M -118.8,408.71 H 129.216 V 238.569 H -118.8 Z"
         id="path989"
         inkscape:connector-curvature="0" /></clipPath><clipPath
       clipPathUnits="userSpaceOnUse"
       id="clipPath995"><path
         d="M 17.9264,415.747 H 243.428 V 295.606 H 17.9264 Z"
         id="path993"
         inkscape:connector-curvature="0" /></clipPath><clipPath
       clipPathUnits="userSpaceOnUse"
       id="clipPath999"><path
         d="m 210.104,295.918 h 24.633 V 29.329 h -24.633 z"
         id="path997"
         inkscape:connector-curvature="0" /></clipPath><clipPath
       clipPathUnits="userSpaceOnUse"
       id="clipPath1003"><path
         d="M 38.4947,163.249 H 252.784 V -17.1702 H 38.4947 Z"
         id="path1001"
         inkscape:connector-curvature="0" /></clipPath><clipPath
       clipPathUnits="userSpaceOnUse"
       id="clipPath1007"><path
         d="M -138.437,91.7825 H 38.9215 V 36.4839 H -138.437 Z"
         id="path1005"
         inkscape:connector-curvature="0" /></clipPath><clipPath
       clipPathUnits="userSpaceOnUse"
       id="clipPath1011"><path
         d="M -117.478,367.997 H 68.1896 V 238.691 H -117.478 Z"
         id="path1009"
         inkscape:connector-curvature="0" /></clipPath><clipPath
       clipPathUnits="userSpaceOnUse"
       id="clipPath1015"><path
         d="M -71.5414,309.353 H 214.317 V 50.0938 H -71.5414 Z"
         id="path1013"
         inkscape:connector-curvature="0" /></clipPath><clipPath
       clipPathUnits="userSpaceOnUse"
       id="clipPath1019"><path
         d="M 10.3055,309.159 H 214.2 V 68.7327 H 10.3055 Z"
         id="path1017"
         inkscape:connector-curvature="0" /></clipPath><clipPath
       clipPathUnits="userSpaceOnUse"
       id="clipPath1023"><path
         d="M 17.3568,227.48 H 156.929 V 144.124 H 17.3568 Z"
         id="path1021"
         inkscape:connector-curvature="0" /></clipPath><clipPath
       clipPathUnits="userSpaceOnUse"
       id="clipPath1027"><path
         d="M -71.6453,295.958 H 145.469 V 68.9023 H -71.6453 Z"
         id="path1025"
         inkscape:connector-curvature="0" /></clipPath><clipPath
       clipPathUnits="userSpaceOnUse"
       id="clipPath1417"><path
         d="M 0,500 H 500 V 0 H 0 Z"
         id="path1415"
         inkscape:connector-curvature="0" /></clipPath></defs><sodipodi:namedview
     pagecolor="#ffffff"
     bordercolor="#666666"
     borderopacity="1"
     objecttolerance="10"
     gridtolerance="10"
     guidetolerance="10"
     inkscape:pageopacity="0"
     inkscape:pageshadow="2"
     inkscape:window-width="1920"
     inkscape:window-height="1001"
     id="namedview817"
     showgrid="false"
     inkscape:zoom="0.85701339"
     inkscape:cx="285.93456"
     inkscape:cy="336.03106"
     inkscape:window-x="-9"
     inkscape:window-y="-9"
     inkscape:window-maximized="1"
     inkscape:current-layer="g823" /><g
     id="g823"
     inkscape:groupmode="layer"
     inkscape:label="2251434"
     transform="matrix(1.3333333,0,0,-1.3333333,0,666.66667)"><g
       id="g825"><g
         id="g827"
         clip-path="url(#clipPath831)"><g
           id="g833"><g
             id="g835" /><g
             id="g863"
             mask="url(#mask845)"><g
               id="g865" /><g
               id="g885"><g
                 clip-path="url(#clipPath869)"
                 id="g883"><g
                   id="g881"><g
                     id="g875" /><g
                     id="g879"><g
                       clip-path="url(#clipPath873)"
                       id="g877"
                       style="opacity:0.83999598" /></g></g></g></g></g></g></g></g><g
       id="g887"><g
         id="g889"
         clip-path="url(#clipPath893)"><g
           id="g895"><g
             id="g897" /><g
             id="g925"
             mask="url(#mask907)"><g
               id="g927" /><g
               id="g1409"><g
                 clip-path="url(#clipPath931)"
                 id="g1407"><g
                   id="g1037"><g
                     id="g1035"><g
                       id="g1033"><g
                         id="g1031"><path
                           d="M 500,0 H 0 v 500 h 500 z"
                           style="fill:url(#linearGradient943);stroke:none"
                           id="path1029"
                           inkscape:connector-curvature="0" /></g></g></g></g><g
                   id="g1049"><g
                     id="g1039" /><g
                     id="g1047"><g
                       clip-path="url(#clipPath947)"
                       id="g1045"
                       style="opacity:0.67999297"><g
                         transform="translate(172.6289,389.6347)"
                         id="g1043"><path
                           d="M 0,0 137.808,-228.096"
                           style="fill:none;stroke:#f7f6f6;stroke-width:0.5;stroke-linecap:butt;stroke-linejoin:miter;stroke-miterlimit:10;stroke-dasharray:none;stroke-opacity:1"
                           id="path1041"
                           inkscape:connector-curvature="0" /></g></g></g></g><g
                   id="g1061"><g
                     id="g1051" /><g
                     id="g1059"><g
                       clip-path="url(#clipPath951)"
                       id="g1057"
                       style="opacity:0.67999297"><g
                         transform="translate(-142,491)"
                         id="g1055"><path
                           d="m 0,0 78.941,-152.549 235.688,51.184 112.464,166.319"
                           style="fill:none;stroke:#f7f6f6;stroke-width:0.5;stroke-linecap:butt;stroke-linejoin:miter;stroke-miterlimit:10;stroke-dasharray:none;stroke-opacity:1"
                           id="path1053"
                           inkscape:connector-curvature="0" /></g></g></g></g><g
                   id="g1073"><g
                     id="g1063" /><g
                     id="g1071"><g
                       clip-path="url(#clipPath955)"
                       id="g1069"
                       style="opacity:0.67999297"><g
                         transform="translate(201.7764,510.0973)"
                         id="g1067"><path
                           d="M 0,0 225.876,-106.207 439.224,-1.597"
                           style="fill:none;stroke:#f7f6f6;stroke-width:0.5;stroke-linecap:butt;stroke-linejoin:miter;stroke-miterlimit:10;stroke-dasharray:none;stroke-opacity:1"
                           id="path1065"
                           inkscape:connector-curvature="0" /></g></g></g></g><g
                   id="g1085"><g
                     id="g1075" /><g
                     id="g1083"><g
                       clip-path="url(#clipPath959)"
                       id="g1081"
                       style="opacity:0.67999297"><g
                         transform="translate(427.6524,403.8907)"
                         id="g1079"><path
                           d="M 0,0 -23.76,-232.848 23.76,-397.583"
                           style="fill:none;stroke:#f7f6f6;stroke-width:0.5;stroke-linecap:butt;stroke-linejoin:miter;stroke-miterlimit:10;stroke-dasharray:none;stroke-opacity:1"
                           id="path1077"
                           inkscape:connector-curvature="0" /></g></g></g></g><g
                   id="g1097"><g
                     id="g1087" /><g
                     id="g1095"><g
                       clip-path="url(#clipPath963)"
                       id="g1093"
                       style="opacity:0.67999297"><g
                         transform="translate(648.3333,213.6667)"
                         id="g1091"><path
                           d="M 0,0 -337.897,-52.128 -494.43,-228.952"
                           style="fill:none;stroke:#f7f6f6;stroke-width:0.5;stroke-linecap:butt;stroke-linejoin:miter;stroke-miterlimit:10;stroke-dasharray:none;stroke-opacity:1"
                           id="path1089"
                           inkscape:connector-curvature="0" /></g></g></g></g><g
                   id="g1109"><g
                     id="g1099" /><g
                     id="g1107"><g
                       clip-path="url(#clipPath967)"
                       id="g1105"
                       style="opacity:0.67999297"><g
                         transform="translate(188.4689,516.3544)"
                         id="g1103"><path
                           d="M 0,0 -250.802,-178.021"
                           style="fill:none;stroke:#f7f6f6;stroke-width:0.5;stroke-linecap:butt;stroke-linejoin:miter;stroke-miterlimit:10;stroke-dasharray:none;stroke-opacity:1"
                           id="path1101"
                           inkscape:connector-curvature="0" /></g></g></g></g><g
                   transform="translate(177.664,389)"
                   id="g1113"><path
                     d="m 0,0 c 0,-2.576 -2.088,-4.664 -4.664,-4.664 -2.576,0 -4.664,2.088 -4.664,4.664 0,2.576 2.088,4.664 4.664,4.664 C -2.088,4.664 0,2.576 0,0 Z"
                     style="fill:none;stroke:#f7f6f6;stroke-width:0.5;stroke-linecap:butt;stroke-linejoin:miter;stroke-miterlimit:10;stroke-dasharray:none;stroke-opacity:1"
                     id="path1111"
                     inkscape:connector-curvature="0" /></g><g
                   transform="translate(176.0714,389)"
                   id="g1117"><path
                     d="m 0,0 c 0,-1.696 -1.375,-3.071 -3.071,-3.071 -1.697,0 -3.072,1.375 -3.072,3.071 0,1.696 1.375,3.071 3.072,3.071 C -1.375,3.071 0,1.696 0,0"
                     style="fill:#f7f6f6;fill-opacity:1;fill-rule:nonzero;stroke:none"
                     id="path1115"
                     inkscape:connector-curvature="0" /></g><g
                   transform="translate(313.2263,161.5391)"
                   id="g1121"><path
                     d="m 0,0 c 0,-1.541 -1.249,-2.79 -2.79,-2.79 -1.54,0 -2.789,1.249 -2.789,2.79 0,1.541 1.249,2.79 2.789,2.79 C -1.249,2.79 0,1.541 0,0"
                     style="fill:#f7f6f6;fill-opacity:1;fill-rule:nonzero;stroke:none"
                     id="path1119"
                     inkscape:connector-curvature="0" /></g><g
                   transform="translate(330.0592,80.5)"
                   id="g1125"><path
                     d="m 0,0 c 0,-1.413 -1.146,-2.559 -2.559,-2.559 -1.414,0 -2.559,1.146 -2.559,2.559 0,1.413 1.145,2.559 2.559,2.559 C -1.146,2.559 0,1.413 0,0"
                     style="fill:#f7f6f6;fill-opacity:1;fill-rule:nonzero;stroke:none"
                     id="path1123"
                     inkscape:connector-curvature="0" /></g><g
                   transform="translate(498.0592,403.5)"
                   id="g1129"><path
                     d="m 0,0 c 0,-2.242 -1.817,-4.059 -4.059,-4.059 -2.242,0 -4.059,1.817 -4.059,4.059 0,2.242 1.817,4.059 4.059,4.059 C -1.817,4.059 0,2.242 0,0"
                     style="fill:#f7f6f6;fill-opacity:1;fill-rule:nonzero;stroke:none"
                     id="path1127"
                     inkscape:connector-curvature="0" /></g><g
                   id="g1141"><g
                     id="g1131" /><g
                     id="g1139"><g
                       clip-path="url(#clipPath971)"
                       id="g1137"
                       style="opacity:0.41000402"><g
                         transform="translate(246.3844,349.6156)"
                         id="g1135"><path
                           d="m 0,0 c 0,-1.869 -1.515,-3.384 -3.384,-3.384 -1.869,0 -3.385,1.515 -3.385,3.384 0,1.869 1.516,3.384 3.385,3.384 C -1.515,3.384 0,1.869 0,0"
                           style="fill:#f7f6f6;fill-opacity:1;fill-rule:nonzero;stroke:none"
                           id="path1133"
                           inkscape:connector-curvature="0" /></g></g></g></g><g
                   transform="translate(46.9805,459.0196)"
                   id="g1145"><path
                     d="m 0,0 c 0,-1.646 -1.334,-2.98 -2.98,-2.98 -1.647,0 -2.981,1.334 -2.981,2.98 0,1.646 1.334,2.98 2.981,2.98 C -1.334,2.98 0,1.646 0,0"
                     style="fill:#f7f6f6;fill-opacity:1;fill-rule:nonzero;stroke:none"
                     id="path1143"
                     inkscape:connector-curvature="0" /></g><g
                   transform="translate(388.7928,199.7928)"
                   id="g1149"><path
                     d="m 0,0 c 0,-1.542 -1.25,-2.793 -2.793,-2.793 -1.542,0 -2.793,1.251 -2.793,2.793 0,1.542 1.251,2.793 2.793,2.793 C -1.25,2.793 0,1.542 0,0"
                     style="fill:#f7f6f6;fill-opacity:1;fill-rule:nonzero;stroke:none"
                     id="path1147"
                     inkscape:connector-curvature="0" /></g><g
                   transform="translate(279,455)"
                   id="g1153"><path
                     d="m 0,0 c 0,-1.542 -1.25,-2.793 -2.793,-2.793 -1.542,0 -2.793,1.251 -2.793,2.793 0,1.542 1.251,2.793 2.793,2.793 C -1.25,2.793 0,1.542 0,0"
                     style="fill:#f7f6f6;fill-opacity:1;fill-rule:nonzero;stroke:none"
                     id="path1151"
                     inkscape:connector-curvature="0" /></g><g
                   transform="translate(299.7697,252.2304)"
                   id="g1157"><path
                     d="m 0,0 c 0,-0.977 -0.792,-1.77 -1.77,-1.77 -0.977,0 -1.769,0.793 -1.769,1.77 0,0.977 0.792,1.77 1.769,1.77 C -0.792,1.77 0,0.977 0,0"
                     style="fill:#f7f6f6;fill-opacity:1;fill-rule:nonzero;stroke:none"
                     id="path1155"
                     inkscape:connector-curvature="0" /></g><g
                   transform="translate(357.7928,290.7928)"
                   id="g1161"><path
                     d="m 0,0 c 0,-1.542 -1.25,-2.793 -2.793,-2.793 -1.542,0 -2.793,1.251 -2.793,2.793 0,1.542 1.251,2.793 2.793,2.793 C -1.25,2.793 0,1.542 0,0"
                     style="fill:#f7f6f6;fill-opacity:1;fill-rule:nonzero;stroke:none"
                     id="path1159"
                     inkscape:connector-curvature="0" /></g><g
                   id="g1277"><g
                     id="g1163" /><g
                     id="g1275"><g
                       clip-path="url(#clipPath975)"
                       id="g1273"
                       style="opacity:0.83999598"><g
                         id="g1175"><g
                           id="g1165" /><g
                           id="g1173"><g
                             clip-path="url(#clipPath979)"
                             id="g1171"
                             style="opacity:0.67999297"><g
                               transform="translate(58.6228,287.3985)"
                               id="g1169"><path
                                 d="M 0,0 81.99,-135.707"
                                 style="fill:none;stroke:#f7f6f6;stroke-width:0.5;stroke-linecap:butt;stroke-linejoin:miter;stroke-miterlimit:10;stroke-dasharray:none;stroke-opacity:1"
                                 id="path1167"
                                 inkscape:connector-curvature="0" /></g></g></g></g><g
                         id="g1187"><g
                           id="g1177" /><g
                           id="g1185"><g
                             clip-path="url(#clipPath983)"
                             id="g1183"
                             style="opacity:0.67999297"><g
                               transform="translate(38.8322,36.7174)"
                               id="g1181"><path
                                 d="M 0,0 -55.166,-25.884"
                                 style="fill:none;stroke:#f7f6f6;stroke-width:0.5;stroke-linecap:butt;stroke-linejoin:miter;stroke-miterlimit:10;stroke-dasharray:none;stroke-opacity:1"
                                 id="path1179"
                                 inkscape:connector-curvature="0" /></g></g></g></g><g
                         id="g1199"><g
                           id="g1189" /><g
                           id="g1197"><g
                             clip-path="url(#clipPath987)"
                             id="g1195"
                             style="opacity:0.67999297"><g
                               transform="translate(-118.5503,326.1734)"
                               id="g1193"><path
                                 d="M 0,0 136.649,89.393 247.55,82.411 361.885,-17.1 l 9.425,-146.073 -18.273,-133.665 -145.707,-46.335 -105.55,28.272 -121.571,66.105 -8.481,138.534 z"
                                 style="fill:none;stroke:#f7f6f6;stroke-width:0.5;stroke-linecap:butt;stroke-linejoin:miter;stroke-miterlimit:10;stroke-dasharray:none;stroke-opacity:1"
                                 id="path1191"
                                 inkscape:connector-curvature="0" /></g></g></g></g><g
                         id="g1211"><g
                           id="g1201" /><g
                           id="g1209"><g
                             clip-path="url(#clipPath991)"
                             id="g1207"
                             style="opacity:0.67999297"><g
                               transform="translate(-118.5503,326.1734)"
                               id="g1205"><path
                                 d="M 0,0 1.215,-87.278 177.173,-38.775 247.55,82.411"
                                 style="fill:none;stroke:#f7f6f6;stroke-width:0.5;stroke-linecap:butt;stroke-linejoin:miter;stroke-miterlimit:10;stroke-dasharray:none;stroke-opacity:1"
                                 id="path1203"
                                 inkscape:connector-curvature="0" /></g></g></g></g><g
                         id="g1223"><g
                           id="g1213" /><g
                           id="g1221"><g
                             clip-path="url(#clipPath995)"
                             id="g1219"
                             style="opacity:0.67999297"><g
                               transform="translate(18.0992,415.5663)"
                               id="g1217"><path
                                 d="m 0,0 49.948,-47.775 142.304,-71.911 32.984,13.194"
                                 style="fill:none;stroke:#f7f6f6;stroke-width:0.5;stroke-linecap:butt;stroke-linejoin:miter;stroke-miterlimit:10;stroke-dasharray:none;stroke-opacity:1"
                                 id="path1215"
                                 inkscape:connector-curvature="0" /></g></g></g></g><g
                         id="g1235"><g
                           id="g1225" /><g
                           id="g1233"><g
                             clip-path="url(#clipPath999)"
                             id="g1231"
                             style="opacity:0.67999297"><g
                               transform="translate(210.3508,295.8802)"
                               id="g1229"><path
                                 d="m 0,0 20.864,-135.534 3.272,-131.011"
                                 style="fill:none;stroke:#f7f6f6;stroke-width:0.5;stroke-linecap:butt;stroke-linejoin:miter;stroke-miterlimit:10;stroke-dasharray:none;stroke-opacity:1"
                                 id="path1227"
                                 inkscape:connector-curvature="0" /></g></g></g></g><g
                         id="g1247"><g
                           id="g1237" /><g
                           id="g1245"><g
                             clip-path="url(#clipPath1003)"
                             id="g1243"
                             style="opacity:0.67999297"><g
                               transform="translate(252.7593,163.0003)"
                               id="g1241"><path
                                 d="M 0,0 -112.147,-11.309 -213.927,-126.283 -163.979,-180"
                                 style="fill:none;stroke:#f7f6f6;stroke-width:0.5;stroke-linecap:butt;stroke-linejoin:miter;stroke-miterlimit:10;stroke-dasharray:none;stroke-opacity:1"
                                 id="path1239"
                                 inkscape:connector-curvature="0" /></g></g></g></g><g
                         id="g1259"><g
                           id="g1249" /><g
                           id="g1257"><g
                             clip-path="url(#clipPath1007)"
                             id="g1255"
                             style="opacity:0.67999297"><g
                               transform="translate(-138.3409,77.3772)"
                               id="g1253"><path
                                 d="M 0,0 33.927,14.136 177.173,-40.66"
                                 style="fill:none;stroke:#f7f6f6;stroke-width:0.5;stroke-linecap:butt;stroke-linejoin:miter;stroke-miterlimit:10;stroke-dasharray:none;stroke-opacity:1"
                                 id="path1251"
                                 inkscape:connector-curvature="0" /></g></g></g></g><g
                         id="g1271"><g
                           id="g1261" /><g
                           id="g1269"><g
                             clip-path="url(#clipPath1011)"
                             id="g1267"
                             style="opacity:0.67999297"><g
                               transform="translate(68.0469,367.7913)"
                               id="g1265"><path
                                 d="M 0,0 -185.382,-128.895"
                                 style="fill:none;stroke:#f7f6f6;stroke-width:0.5;stroke-linecap:butt;stroke-linejoin:miter;stroke-miterlimit:10;stroke-dasharray:none;stroke-opacity:1"
                                 id="path1263"
                                 inkscape:connector-curvature="0" /></g></g></g></g></g></g></g><g
                   transform="translate(69.4891,368.0683)"
                   id="g1281"><path
                     d="m 0,0 c 0,-1.334 -1.081,-2.415 -2.415,-2.415 -1.334,0 -2.415,1.081 -2.415,2.415 0,1.334 1.081,2.415 2.415,2.415 C -1.081,2.415 0,1.334 0,0"
                     style="fill:#f7f6f6;fill-opacity:1;fill-rule:nonzero;stroke:none"
                     id="path1279"
                     inkscape:connector-curvature="0" /></g><g
                   transform="translate(62.2901,287.3985)"
                   id="g1285"><path
                     d="m 0,0 c 0,-2.025 -1.642,-3.667 -3.667,-3.667 -2.026,0 -3.668,1.642 -3.668,3.667 0,2.025 1.642,3.667 3.668,3.667 C -1.642,3.667 0,2.025 0,0 Z"
                     style="fill:none;stroke:#f7f6f6;stroke-width:0.5;stroke-linecap:butt;stroke-linejoin:miter;stroke-miterlimit:10;stroke-dasharray:none;stroke-opacity:1"
                     id="path1283"
                     inkscape:connector-curvature="0" /></g><g
                   transform="translate(61.0379,287.3985)"
                   id="g1289"><path
                     d="m 0,0 c 0,-1.334 -1.081,-2.415 -2.415,-2.415 -1.334,0 -2.415,1.081 -2.415,2.415 0,1.334 1.081,2.415 2.415,2.415 C -1.081,2.415 0,1.334 0,0"
                     style="fill:#f7f6f6;fill-opacity:1;fill-rule:nonzero;stroke:none"
                     id="path1287"
                     inkscape:connector-curvature="0" /></g><g
                   transform="translate(143.6109,151.6914)"
                   id="g1293"><path
                     d="m 0,0 c 0,-1.656 -1.342,-2.998 -2.998,-2.998 -1.656,0 -2.999,1.342 -2.999,2.998 0,1.656 1.343,2.998 2.999,2.998 C -1.342,2.998 0,1.656 0,0"
                     style="fill:#f7f6f6;fill-opacity:1;fill-rule:nonzero;stroke:none"
                     id="path1291"
                     inkscape:connector-curvature="0" /></g><g
                   transform="translate(255.1744,163.0003)"
                   id="g1297"><path
                     d="m 0,0 c 0,-1.334 -1.081,-2.415 -2.415,-2.415 -1.334,0 -2.415,1.081 -2.415,2.415 0,1.334 1.081,2.415 2.415,2.415 C -1.081,2.415 0,1.334 0,0"
                     style="fill:#f7f6f6;fill-opacity:1;fill-rule:nonzero;stroke:none"
                     id="path1295"
                     inkscape:connector-curvature="0" /></g><g
                   transform="translate(237.1651,30)"
                   id="g1301"><path
                     d="m 0,0 c 0,-1.334 -1.081,-2.415 -2.415,-2.415 -1.334,0 -2.415,1.081 -2.415,2.415 0,1.334 1.081,2.415 2.415,2.415 C -1.081,2.415 0,1.334 0,0"
                     style="fill:#f7f6f6;fill-opacity:1;fill-rule:nonzero;stroke:none"
                     id="path1299"
                     inkscape:connector-curvature="0" /></g><g
                   transform="translate(21.7665,415.5662)"
                   id="g1305"><path
                     d="m 0,0 c 0,-2.025 -1.642,-3.667 -3.667,-3.667 -2.026,0 -3.668,1.642 -3.668,3.667 0,2.025 1.642,3.667 3.668,3.667 C -1.642,3.667 0,2.025 0,0 Z"
                     style="fill:none;stroke:#f7f6f6;stroke-width:0.5;stroke-linecap:butt;stroke-linejoin:miter;stroke-miterlimit:10;stroke-dasharray:none;stroke-opacity:1"
                     id="path1303"
                     inkscape:connector-curvature="0" /></g><g
                   transform="translate(20.5142,415.5663)"
                   id="g1309"><path
                     d="m 0,0 c 0,-1.334 -1.081,-2.415 -2.415,-2.415 -1.334,0 -2.415,1.081 -2.415,2.415 0,1.334 1.081,2.415 2.415,2.415 C -1.081,2.415 0,1.334 0,0"
                     style="fill:#f7f6f6;fill-opacity:1;fill-rule:nonzero;stroke:none"
                     id="path1307"
                     inkscape:connector-curvature="0" /></g><g
                   transform="translate(131.4151,408.5849)"
                   id="g1313"><path
                     d="m 0,0 c 0,-1.334 -1.081,-2.415 -2.415,-2.415 -1.334,0 -2.415,1.081 -2.415,2.415 0,1.334 1.081,2.415 2.415,2.415 C -1.081,2.415 0,1.334 0,0"
                     style="fill:#f7f6f6;fill-opacity:1;fill-rule:nonzero;stroke:none"
                     id="path1311"
                     inkscape:connector-curvature="0" /></g><g
                   transform="translate(245.7503,309.0739)"
                   id="g1317"><path
                     d="m 0,0 c 0,-1.334 -1.081,-2.415 -2.415,-2.415 -1.334,0 -2.415,1.081 -2.415,2.415 0,1.334 1.081,2.415 2.415,2.415 C -1.081,2.415 0,1.334 0,0"
                     style="fill:#f7f6f6;fill-opacity:1;fill-rule:nonzero;stroke:none"
                     id="path1315"
                     inkscape:connector-curvature="0" /></g><g
                   transform="translate(41.2473,36.7174)"
                   id="g1321"><path
                     d="m 0,0 c 0,-1.334 -1.081,-2.415 -2.415,-2.415 -1.334,0 -2.415,1.081 -2.415,2.415 0,1.334 1.081,2.415 2.415,2.415 C -1.081,2.415 0,1.334 0,0"
                     style="fill:#f7f6f6;fill-opacity:1;fill-rule:nonzero;stroke:none"
                     id="path1319"
                     inkscape:connector-curvature="0" /></g><g
                   id="g1333"><g
                     id="g1323" /><g
                     id="g1331"><g
                       clip-path="url(#clipPath1015)"
                       id="g1329"
                       style="opacity:0.41000402"><g
                         transform="translate(-71.2549,174.1926)"
                         id="g1327"><path
                           d="m 0,0 47.553,105.04 34.276,16.586 121.626,13.268 81.821,-140.422 -68.553,-99.512 -33.171,-18.797 -110.414,19.415 z"
                           style="fill:none;stroke:#f7f6f6;stroke-width:0.5;stroke-linecap:butt;stroke-linejoin:miter;stroke-miterlimit:10;stroke-dasharray:none;stroke-opacity:1"
                           id="path1325"
                           inkscape:connector-curvature="0" /></g></g></g></g><g
                   id="g1345"><g
                     id="g1335" /><g
                     id="g1343"><g
                       clip-path="url(#clipPath1019)"
                       id="g1341"
                       style="opacity:0.41000402"><g
                         transform="translate(132.1997,309.0865)"
                         id="g1339"><path
                           d="m 0,0 24.602,-81.821 -11.334,-158.113 -127.983,75.187 -6.911,151.479 146.228,-68.553 57.219,-58.601"
                           style="fill:none;stroke:#f7f6f6;stroke-width:0.5;stroke-linecap:butt;stroke-linejoin:miter;stroke-miterlimit:10;stroke-dasharray:none;stroke-opacity:1"
                           id="path1337"
                           inkscape:connector-curvature="0" /></g></g></g></g><g
                   id="g1357"><g
                     id="g1347" /><g
                     id="g1355"><g
                       clip-path="url(#clipPath1023)"
                       id="g1353"
                       style="opacity:0.41000402"><g
                         transform="translate(156.8013,227.2656)"
                         id="g1351"><path
                           d="M 0,0 -139.317,-82.927"
                           style="fill:none;stroke:#f7f6f6;stroke-width:0.5;stroke-linecap:butt;stroke-linejoin:miter;stroke-miterlimit:10;stroke-dasharray:none;stroke-opacity:1"
                           id="path1349"
                           inkscape:connector-curvature="0" /></g></g></g></g><g
                   id="g1369"><g
                     id="g1359" /><g
                     id="g1367"><g
                       clip-path="url(#clipPath1027)"
                       id="g1365"
                       style="opacity:0.41000402"><g
                         transform="translate(145.468,69.1523)"
                         id="g1363"><path
                           d="m 0,0 -143.585,0.618 15.602,74.569 -88.74,29.853 81.829,121.626"
                           style="fill:none;stroke:#f7f6f6;stroke-width:0.5;stroke-linecap:butt;stroke-linejoin:miter;stroke-miterlimit:10;stroke-dasharray:none;stroke-opacity:1"
                           id="path1361"
                           inkscape:connector-curvature="0" /></g></g></g></g><g
                   transform="translate(21.1519,144.3391)"
                   id="g1373"><path
                     d="m 0,0 c 0,-2.025 -1.642,-3.667 -3.667,-3.667 -2.026,0 -3.668,1.642 -3.668,3.667 0,2.025 1.642,3.667 3.668,3.667 C -1.642,3.667 0,2.025 0,0 Z"
                     style="fill:none;stroke:#f7f6f6;stroke-width:0.5;stroke-linecap:butt;stroke-linejoin:miter;stroke-miterlimit:10;stroke-dasharray:none;stroke-opacity:1"
                     id="path1371"
                     inkscape:connector-curvature="0" /></g><g
                   transform="translate(19.8997,144.3391)"
                   id="g1377"><path
                     d="m 0,0 c 0,-1.334 -1.081,-2.415 -2.415,-2.415 -1.334,0 -2.415,1.081 -2.415,2.415 0,1.334 1.081,2.415 2.415,2.415 C -1.081,2.415 0,1.334 0,0"
                     style="fill:#f7f6f6;fill-opacity:1;fill-rule:nonzero;stroke:none"
                     id="path1375"
                     inkscape:connector-curvature="0" /></g><g
                   transform="translate(12.9891,295.8183)"
                   id="g1381"><path
                     d="m 0,0 c 0,-1.334 -1.081,-2.415 -2.415,-2.415 -1.334,0 -2.415,1.081 -2.415,2.415 0,1.334 1.081,2.415 2.415,2.415 C -1.081,2.415 0,1.334 0,0"
                     style="fill:#f7f6f6;fill-opacity:1;fill-rule:nonzero;stroke:none"
                     id="path1379"
                     inkscape:connector-curvature="0" /></g><g
                   transform="translate(159.2164,227.2656)"
                   id="g1385"><path
                     d="m 0,0 c 0,-1.334 -1.081,-2.415 -2.415,-2.415 -1.334,0 -2.415,1.081 -2.415,2.415 0,1.334 1.081,2.415 2.415,2.415 C -1.081,2.415 0,1.334 0,0"
                     style="fill:#f7f6f6;fill-opacity:1;fill-rule:nonzero;stroke:none"
                     id="path1383"
                     inkscape:connector-curvature="0" /></g><g
                   transform="translate(135.8671,309.0865)"
                   id="g1389"><path
                     d="m 0,0 c 0,-2.025 -1.642,-3.667 -3.667,-3.667 -2.026,0 -3.668,1.642 -3.668,3.667 0,2.025 1.642,3.667 3.668,3.667 C -1.642,3.667 0,2.025 0,0 Z"
                     style="fill:none;stroke:#f7f6f6;stroke-width:0.5;stroke-linecap:butt;stroke-linejoin:miter;stroke-miterlimit:10;stroke-dasharray:none;stroke-opacity:1"
                     id="path1387"
                     inkscape:connector-curvature="0" /></g><g
                   transform="translate(134.6148,309.0865)"
                   id="g1393"><path
                     d="m 0,0 c 0,-1.334 -1.081,-2.415 -2.415,-2.415 -1.334,0 -2.415,1.081 -2.415,2.415 0,1.334 1.081,2.415 2.415,2.415 C -1.081,2.415 0,1.334 0,0"
                     style="fill:#f7f6f6;fill-opacity:1;fill-rule:nonzero;stroke:none"
                     id="path1391"
                     inkscape:connector-curvature="0" /></g><g
                   transform="translate(147.8831,69.1523)"
                   id="g1397"><path
                     d="m 0,0 c 0,-1.334 -1.081,-2.415 -2.415,-2.415 -1.334,0 -2.415,1.081 -2.415,2.415 0,1.334 1.081,2.415 2.415,2.415 C -1.081,2.415 0,1.334 0,0"
                     style="fill:#f7f6f6;fill-opacity:1;fill-rule:nonzero;stroke:none"
                     id="path1395"
                     inkscape:connector-curvature="0" /></g><g
                   transform="translate(4.2981,69.7703)"
                   id="g1401"><path
                     d="m 0,0 c 0,-1.334 -1.081,-2.415 -2.415,-2.415 -1.334,0 -2.415,1.081 -2.415,2.415 0,1.334 1.081,2.415 2.415,2.415 C -1.081,2.415 0,1.334 0,0"
                     style="fill:#f7f6f6;fill-opacity:1;fill-rule:nonzero;stroke:none"
                     id="path1399"
                     inkscape:connector-curvature="0" /></g><g
                   transform="translate(114.7124,50.3556)"
                   id="g1405"><path
                     d="m 0,0 c 0,-1.334 -1.081,-2.415 -2.415,-2.415 -1.334,0 -2.415,1.081 -2.415,2.415 0,1.334 1.081,2.415 2.415,2.415 C -1.081,2.415 0,1.334 0,0"
                     style="fill:#f7f6f6;fill-opacity:1;fill-rule:nonzero;stroke:none"
                     id="path1403"
                     inkscape:connector-curvature="0" /></g></g></g></g></g></g></g></g></svg>