<?xml version="1.0" encoding="utf-8"?>
<!-- Generator: Adobe Illustrator 17.0.0, SVG Export Plug-In . SVG Version: 6.00 Build 0)  -->
<!DOCTYPE svg PUBLIC "-//W3C//DTD SVG 1.1//EN" "http://www.w3.org/Graphics/SVG/1.1/DTD/svg11.dtd">
<svg version="1.1" id="Layer_1" xmlns="http://www.w3.org/2000/svg" xmlns:xlink="http://www.w3.org/1999/xlink" x="0px" y="0px"
	 width="720px" height="504px" viewBox="0 0 720 504" enable-background="new 0 0 720 504" xml:space="preserve">
<g>
	<text transform="matrix(1 0 0 1 36.6493 415.2284)"><tspan x="0" y="0" fill="#C5D2DB" font-family="'REZ'" font-size="155.8714">One</tspan><tspan x="218.683" y="0" fill="#709FB0" font-family="'REZ'" font-size="155.8714">Miracle</tspan></text>
	<g>
		<path fill="#709FB0" d="M344.116,228.483c2.032,4.715,3.04,9.772,3.04,15.155v57.594c-30.837-3.18-58.308-17.637-78.256-39.182
			v-18.412c0-5.382,1.008-10.439,3.04-15.155c2.017-4.716,4.809-8.857,8.361-12.425c3.568-3.552,7.709-6.344,12.425-8.361
			c4.715-2.032,9.772-3.04,15.155-3.04c5.382,0,10.486,1.008,15.31,3.04c4.809,2.016,8.997,4.809,12.564,8.361
			C339.308,219.626,342.1,223.767,344.116,228.483z"/>
		<path fill="#709FB0" d="M448.059,228.483c2.032,4.715,3.04,9.772,3.04,15.155v18.412c-19.948,21.546-47.419,36.002-78.256,39.182
			v-57.594c0-5.382,1.024-10.439,3.04-15.155c2.016-4.716,4.809-8.857,8.376-12.425c3.552-3.552,7.694-6.344,12.409-8.361
			c4.715-2.032,9.772-3.04,15.155-3.04c5.398,0,10.501,1.008,15.31,3.04c4.809,2.016,8.997,4.809,12.564,8.361
			C443.25,219.626,446.042,223.767,448.059,228.483z"/>
		<path fill="#C5D2DB" d="M484.092,177.791c0,17.063-3.444,33.303-9.679,48.101c-0.729-2.575-1.613-5.072-2.668-7.523
			c-3.382-7.787-8.035-14.627-14.007-20.491c-5.972-5.879-12.844-10.501-20.646-13.867c-7.802-3.366-16.225-5.057-25.268-5.057
			c-10.579,0-20.397,2.373-29.441,7.073c-9.059,4.731-16.566,11.122-22.523,19.203c-5.972-8.082-13.433-14.472-22.383-19.203
			c-8.95-4.7-18.815-7.073-29.596-7.073c-8.857,0-17.233,1.691-25.113,5.057c-7.895,3.366-14.783,7.988-20.646,13.867
			c-5.879,5.863-10.501,12.704-13.867,20.491c-1.055,2.451-1.939,4.948-2.668,7.523c-6.236-14.798-9.679-31.038-9.679-48.101
			c0-68.53,55.562-124.092,124.092-124.092C428.53,53.699,484.092,109.261,484.092,177.791z"/>
	</g>
</g>
</svg>
