<?xml version="1.0" encoding="UTF-8" standalone="no"?>
<svg
   xmlns:dc="http://purl.org/dc/elements/1.1/"
   xmlns:cc="http://creativecommons.org/ns#"
   xmlns:rdf="http://www.w3.org/1999/02/22-rdf-syntax-ns#"
   xmlns:svg="http://www.w3.org/2000/svg"
   xmlns="http://www.w3.org/2000/svg"
   xmlns:sodipodi="http://sodipodi.sourceforge.net/DTD/sodipodi-0.dtd"
   xmlns:inkscape="http://www.inkscape.org/namespaces/inkscape"
   width="2500"
   height="2500"
   viewBox="0 0 538.584 538.583"
   version="1.1"
   id="svg3925"
   sodipodi:docname="css3.svg"
   inkscape:version="0.92.4 (5da689c313, 2019-01-14)">
  <metadata
     id="metadata3931">
    <rdf:RDF>
      <cc:Work
         rdf:about="">
        <dc:format>image/svg+xml</dc:format>
        <dc:type
           rdf:resource="http://purl.org/dc/dcmitype/StillImage" />
      </cc:Work>
    </rdf:RDF>
  </metadata>
  <defs
     id="defs3929" />
  <sodipodi:namedview
     pagecolor="#ffffff"
     bordercolor="#666666"
     borderopacity="1"
     objecttolerance="10"
     gridtolerance="10"
     guidetolerance="10"
     inkscape:pageopacity="0"
     inkscape:pageshadow="2"
     inkscape:window-width="958"
     inkscape:window-height="991"
     id="namedview3927"
     showgrid="false"
     inkscape:zoom="0.26700352"
     inkscape:cx="1797.8139"
     inkscape:cy="1470.2683"
     inkscape:window-x="-8"
     inkscape:window-y="0"
     inkscape:window-maximized="0"
     inkscape:current-layer="svg3925" />
  <path
     d="M -41.078441,-38.266318 H 583.69672 V 572.81503 H -41.078441 Z"
     id="path3883"
     inkscape:connector-curvature="0"
     style="fill:none;stroke-width:1.14725077" />
  <path
     d="M 429.3149,492.1114 271.30682,533.72434 113.29642,492.1114 76.834264,105.74852 H 465.7817 Z"
     id="path3885"
     inkscape:connector-curvature="0"
     style="fill:#2062af;stroke-width:1.14725077" />
  <path
     d="m 271.30566,137.04332 v 363.49142 l 0.3573,0.0953 127.86926,-33.67747 29.51471,-329.90925 z"
     id="path3887"
     inkscape:connector-curvature="0"
     style="fill:#3c9cd7;stroke-width:1.14725077" />
  <path
     d="M 181.63048,48.984013 V 25.987749 h 34.30333 V 0.824381 h -60.03054 v 71.121858 h 60.03054 V 48.984013 Z m 96.01128,-22.996264 h 23.98252 V 0.824381 h -60.03634 v 25.163368 c 8.03207,7.856036 12.22095,11.616131 23.83752,22.97811 -6.79084,0 -23.83752,0.02383 -23.83752,0.02269 v 22.957688 h 60.03634 V 48.984013 Z m 85.09074,0 h 23.98136 V 0.824381 h -60.03867 v 25.163368 c 8.03207,7.856036 12.22327,11.616131 23.83984,22.97811 -6.78852,0 -23.83984,0.02383 -23.83984,0.02269 v 22.957688 h 60.03983 V 48.984013 Z"
     id="path3889"
     inkscape:connector-curvature="0"
     style="stroke-width:1.14725077" />
  <path
     d="m 271.16529,233.64964 -113.0916,46.06741 3.75039,45.61017 109.34121,-45.7259 116.31071,-48.63844 4.82225,-46.6574 z"
     id="path3891"
     inkscape:connector-curvature="0"
     style="fill:#ffffff;stroke-width:1.14725077" />
  <linearGradient
     id="a"
     gradientUnits="userSpaceOnUse"
     x1="-825.508"
     y1="1338.301"
     x2="-825.508"
     y2="1419.102"
     gradientTransform="matrix(1.1600329,0,0,-1.1346095,1172.2347,1843.7774)">
    <stop
       offset=".387"
       stop-color="#d1d3d4"
       stop-opacity="0"
       id="stop3893" />
    <stop
       offset="1"
       stop-color="#d1d3d4"
       id="stop3895" />
  </linearGradient>
  <path
     d="m 158.07253,279.71705 3.75039,45.61017 109.34122,-45.7259 v -45.95168 z"
     id="path3898"
     style="fill:url(#a);stroke-width:1.14725077"
     inkscape:connector-curvature="0" />
  <linearGradient
     id="b"
     gradientUnits="userSpaceOnUse"
     x1="-724.552"
     y1="1378.602"
     x2="-724.552"
     y2="1462.591"
     gradientTransform="matrix(1.1600329,0,0,-1.1346095,1172.2347,1843.7774)">
    <stop
       offset=".387"
       stop-color="#d1d3d4"
       stop-opacity="0"
       id="stop3900" />
    <stop
       offset="1"
       stop-color="#d1d3d4"
       id="stop3902" />
  </linearGradient>
  <path
     d="m 392.29825,184.30662 -121.13296,49.34302 v 45.95168 L 387.476,230.96288 Z"
     id="path3905"
     style="fill:url(#b);stroke-width:1.14725077"
     inkscape:connector-curvature="0" />
  <linearGradient
     id="c"
     gradientUnits="userSpaceOnUse"
     x1="-874.103"
     y1="1302.263"
     x2="-680.039"
     y2="1302.263"
     gradientTransform="matrix(1.1600329,0,0,-1.1346095,1172.2347,1843.7774)">
    <stop
       offset="0"
       stop-color="#e8e7e5"
       id="stop3907" />
    <stop
       offset="1"
       stop-color="#fff"
       id="stop3909" />
  </linearGradient>
  <path
     d="m 158.24654,279.71705 3.75154,45.61017 167.76976,0.52305 -3.7527,60.8128 -55.20598,15.2015 -53.06917,-13.10588 -3.21562,-37.74618 h -49.31068 l 6.43238,72.87029 99.69903,28.83269 99.15846,-28.30964 12.86476,-144.6888 z"
     id="path3912"
     style="fill:url(#c);stroke-width:1.14725077"
     inkscape:connector-curvature="0" />
  <path
     d="m 271.16529,279.71705 h -113.0916 l 3.75039,45.61017 109.34121,0.34151 z m 0,122.00229 -0.53593,0.14636 -53.06222,-13.10587 -3.21561,-37.74619 h -49.30952 l 6.43122,72.8703 99.69206,28.83269 z"
     id="path3914"
     inkscape:connector-curvature="0"
     style="opacity:0.05;stroke-width:1.14725077" />
  <linearGradient
     id="d"
     gradientUnits="userSpaceOnUse"
     x1="-883.032"
     y1="1442.031"
     x2="-672.341"
     y2="1442.031"
     gradientTransform="matrix(1.1600329,0,0,-1.1346095,1172.2347,1843.7774)">
    <stop
       offset="0"
       stop-color="#e8e7e5"
       id="stop3916" />
    <stop
       offset="1"
       stop-color="#fff"
       id="stop3918" />
  </linearGradient>
  <path
     d="m 147.8886,184.30662 h 244.40965 l -4.82225,46.6574 H 153.78389 Z"
     id="path3921"
     style="fill:url(#d);stroke-width:1.14725077"
     inkscape:connector-curvature="0" />
  <path
     d="M 271.16529,184.30662 H 147.8886 l 5.89529,46.6574 h 117.3814 z"
     id="path3923"
     inkscape:connector-curvature="0"
     style="opacity:0.05;stroke-width:1.14725077" />
</svg>
